<?xml version="1.0" encoding="iso-8859-1"?>
<!-- Generator: Adobe Illustrator 28.3.0, SVG Export Plug-In . SVG Version: 6.00 Build 0)  -->
<svg version="1.1" id="Layer_1" xmlns="http://www.w3.org/2000/svg" xmlns:xlink="http://www.w3.org/1999/xlink" x="0px" y="0px"
	 width="128px" height="128px" viewBox="0 0 128 128" enable-background="new 0 0 128 128" xml:space="preserve">
<g>
	<rect x="50.706" y="49.56" width="0.615" height="0.308"/>
	<rect x="72.245" y="23.406" width="0.308" height="0.308"/>
	<rect x="64.553" y="86.483" width="0.308" height="0.308"/>
	<rect x="47.63" y="89.867" width="0.308" height="0.615"/>
	<rect x="47.322" y="88.021" width="0.308" height="0.308"/>
	<rect x="55.63" y="19.713" width="0.308" height="0.308"/>
	<polygon points="52.86,86.79 53.168,86.79 53.168,87.406 53.476,87.406 53.476,87.098 53.783,87.098 53.783,86.79 53.476,86.79 
		53.476,86.483 52.86,86.483 	"/>
	<rect x="65.476" y="86.79" width="0.308" height="0.308"/>
	<rect x="79.63" y="49.56" width="0.308" height="0.308"/>
	<rect x="52.86" y="85.56" width="0.308" height="0.308"/>
	<rect x="67.014" y="28.636" width="0.308" height="0.308"/>
	<rect x="50.091" y="97.867" width="0.308" height="0.308"/>
	<path d="M95.937,68.021v-0.308h-0.615v-0.615h-0.308v-0.615h-0.308v-0.308h-0.308v-0.308h-0.308v-0.615h-0.308v-0.308h-0.308
		v-0.615H92.86v-0.615h-0.308v-0.615h0.308V62.79h0.308v-0.308H92.86v-0.308h0.615V61.56h-0.308v-0.308H92.86v-0.308h0.308v-0.615
		h0.308v-1.231h0.308V57.56h-0.308v-1.231h0.308v-0.308h-0.308v-0.308h0.308v-0.308h-0.308v-0.308h0.308v-0.923h-0.308V53.56h0.308
		v-0.308h-0.308v-0.308h0.308v-0.615h-0.308v-1.231h-0.308V50.79h0.308v-0.308h-0.308V49.56h0.308v-0.308h-0.308v-0.615H92.86
		v-0.615h0.308v-0.308H92.86v-1.538h-0.308v-0.308h0.308v-0.615h-0.308v-0.308h0.308v-0.308h-0.308v-0.308h0.308v-0.615h-0.308
		v-1.231h-0.308v-0.308h0.308v-0.308h-0.308v-1.846h-0.308V38.79H91.63V37.56h0.308v-0.615H91.63v-0.308h0.308v-0.308H91.63v-0.923
		h-0.308v-0.308h-0.308V34.79h-0.615v-0.308h-0.308v-0.308h-0.308v-0.308h-0.308v-0.615h-0.308v-0.308h-0.615v-0.308h-0.308v-0.615
		H87.63v-0.308h-0.308v-0.308h-0.923V30.79h-0.308v-0.308h-0.308v-0.308h-1.846v-0.308h-1.231V29.56h-0.308v-0.308h-0.308v-0.308
		h-0.615v-0.308h-0.308v-0.308h-0.615v-0.615h-1.231v-0.308h-0.308v0.308h-0.308v-0.308h-0.615v-0.308h-1.538V26.79h-0.308v-0.308
		h-0.308v0.308h-0.923v-0.308h-0.615v-0.308h-0.308v-0.308h-0.308V25.56h-0.308v-0.308H72.86v-0.615h-0.308v-0.308h-0.308v-0.308
		h-0.308v-0.615H71.63v-0.308h0.308V22.79h-0.615v-0.615h-0.308v-0.308h0.308V21.56h-0.308v-0.308h-0.308v-0.308h-0.308v-0.308
		h-0.308v-0.308h-0.308v-0.615h-0.308v-0.308h-0.308V18.79H68.86v-0.615h-0.308V17.56h-0.308v-0.615h-0.308v-0.308h-0.615v-0.615
		h-0.615v-0.308h-0.615v-0.308h-0.308v-0.308h-0.308V14.79h-0.308v0.308H64.86V14.79h-0.923v-0.308h-0.923v0.308h-1.231v0.308
		h-0.308v0.308h-1.231v0.308h-0.308v-0.308H59.63v0.615h-0.923v0.308h-0.308v0.308h-0.308v0.615h-0.308v0.308h-0.615v0.308H56.86
		v0.308h-0.308v0.923h-0.615v0.308h0.308v0.923h-0.308v0.308H55.63v0.923h-0.308v0.308h0.308v0.308h0.308v1.846h0.308v0.615h0.308
		v0.923h0.308v1.846h0.308v0.615H56.86v0.308h0.308v0.615h0.308v0.615h-0.308v1.846h-0.923v0.308h0.308v0.308h-0.615v0.308h-1.538
		v0.308h-0.308v0.308h-0.615v-0.308H52.86v0.308h-0.308v0.308h-0.615v-0.308h-0.615v0.308h-0.615v0.615h-0.615v0.308h-0.615v0.615
		h-0.308v0.308h-0.615v0.308h-0.615v0.615h-0.923v0.308h-0.308v0.308h-0.923v0.615h-0.308v0.308H44.86v0.615h-0.615v0.308H43.63
		v0.308h-0.308v0.308h-0.308v0.615h-0.615v0.615h-0.615v0.615h-0.308v0.308h-0.308v0.308H40.86v0.615h-0.308v0.308h-0.308v0.615
		h-0.308v1.538H39.63v0.308h0.923v0.308h-0.308v0.615h-0.308v-0.615H39.63v0.615h-0.308v1.846h-0.308v0.308h0.308v0.615h-0.308
		v0.615h0.308v0.308h-0.308v0.308h0.308v0.923h-0.308v0.308h0.308v0.308h-0.308v0.308h0.308v3.692h0.308v0.615h0.308v0.923h0.308
		v0.615h0.308v0.923h0.308v0.615h0.308v0.615h0.308v0.923h0.308v1.231h0.308v0.308h0.308v0.308h-0.308v0.308h0.308v0.615h0.308
		v0.308h0.308v1.538h-0.308v0.923h-0.308v1.231h-0.308v0.308h-0.308v0.615h-0.308v0.308h-0.308v0.923H40.86v0.308h-0.308v0.615
		h-0.308v0.308h-0.308v0.615H39.63v0.308h-0.308v0.615h-0.615v0.308h-0.308v0.615h-0.615v0.308h-0.615v0.308h0.615v0.308h-0.615
		v0.923h0.615v0.308h-0.308v0.308h0.615v0.308h0.615v0.308h0.308v-0.308h0.308v0.308h0.308v0.308h0.308v1.231H39.63v1.538h-0.615
		v0.923h-0.308v0.308h0.615v0.923h-0.308v0.615h0.308v0.308h-0.308v0.923h0.308v0.308h0.308v0.923h-0.615v0.308h0.308v0.615h0.308
		v0.615h0.308v0.615h0.308v0.308h-0.308v0.615h0.615v0.308h-0.308v0.308h-0.308v0.308h0.308v0.308h-0.308v0.615h0.308v0.308h-0.308
		v0.615h0.308v0.308h-0.308v0.308h0.615v0.308h-0.308v1.231h0.308v0.308h-0.308v0.308h0.308v0.615h-0.308v0.308h0.308v0.615h-0.308
		v0.308h0.308v0.308h-0.308v0.308h0.308v0.308h-0.308v0.308h-0.308v0.308H39.63v0.308h-0.308v0.308h-0.615v0.615h-0.308v0.308
		h-0.308v0.615h-0.308v0.308h-0.308v0.615H36.86v0.308h-0.308v0.308h-0.308v0.615H35.63v0.615h-0.615v0.615h-0.615v0.308h-0.923
		v0.308H32.86v0.308h-0.615v0.615h-0.308v0.308H31.63v0.308h-0.308v0.308h-0.308v0.308h-0.308v0.615h-0.615v0.923h-0.308v1.231
		h0.308v0.308h0.308v0.615h1.231v0.308h0.615v0.308h0.308v-0.308h0.923v-0.308h0.615v-0.308h0.615v-0.308h0.615v-0.308h0.615v-0.308
		h0.615v-0.615h0.308v-0.308h0.308v-0.308h0.308v-0.308h0.308v-0.308h0.308v-0.308h0.615v-0.308h0.308v-0.308h0.308v-0.308h0.308
		v0.308h0.308v-0.308h0.308v-0.308h0.308v-0.308h0.308v0.308h0.308v-0.308h0.923v-0.308h0.308v0.308h-0.308v0.308h0.615v-0.615
		h0.615v0.615h0.308v-0.615h0.308v-0.308h0.923v-0.308h0.615v-0.308h0.308v0.308h0.308v-0.308h0.308v-0.308h0.923v-0.308h0.308
		v-0.308h0.308v-0.308h0.308v-0.923h0.308v-0.923h0.308v-1.231h0.308v-0.923H48.86v-0.615h-0.308v-0.308h0.308v-0.308h0.308v-0.308
		H48.86v-0.308h0.308v-0.308h-0.615v-0.615h-0.615v-0.308H47.63v-0.308h0.308v-0.615H47.63v-1.846h0.308v-0.308H47.63V90.79h-0.308
		v-0.615h-0.308v-0.308h0.308V89.56h0.308v-0.308h0.308v-0.308h-0.615v0.308h-0.308v-0.615h0.308v-0.308h-0.615v-0.308h0.615v-0.308
		h0.308v-0.308h0.308v-0.308H47.63V86.79h0.615v-0.308h0.308v0.308h0.308v-0.615h-0.308v-0.308h-0.308v-1.231h-0.308v-0.308h0.308
		v-0.923h0.308V82.79h1.231v-0.615h0.308v-0.308h0.923V81.56h0.615v-0.308h0.615v-0.308h0.308v-0.308h0.308v-0.308h-0.615v0.308
		H51.63v0.308h-0.308v-0.308h0.308v-0.308h0.308v-0.308h0.308v-0.308h0.308v0.308h0.308v0.308h0.615v-0.615h0.615v-0.308h0.308
		v-0.308h0.308V78.79h0.615v-0.615h0.615v-0.308h0.308V77.56h0.308v-0.615h0.615v-0.615h0.308v0.308h0.308v-0.308h0.308v0.308h0.923
		v0.308h-0.308v0.308h-0.308v1.846h-0.308V78.79h-0.308v1.231h-0.308v0.308h-0.308v0.308H56.86v0.308h-0.308v0.308h-0.308v0.308
		h-0.308v0.615H55.63v0.308h-0.308v0.615h-0.308v0.615h-0.308v0.615h-0.308v0.615h-0.308v0.615h-0.308v0.308h-0.308v0.308h0.308
		v0.308h0.308v-0.615h0.308V85.56h0.308v0.615h-0.308v1.231h-0.308v0.308h0.308v0.308h0.308v0.308h-0.308v0.308h-0.308v-0.308
		h-0.308v-0.308h-0.308v-0.308h-0.308v0.615H52.86v0.308h0.308v1.538H52.86v0.308h0.308v1.538H52.86v0.308h0.308v0.308H52.86v0.308
		h0.308v0.615h0.308v1.231h-0.308v0.615h0.308v0.923h0.308v0.308h-0.308v0.923h0.308v0.615h-0.308v0.308h0.308v0.308h-0.308v0.308
		h0.308v0.308h0.308v0.308h-0.308v1.231h0.308v0.615h-0.308v0.923h-0.308v0.308h-0.308v0.923H52.86v0.308h-0.308v-0.308h-0.308
		v0.923h-0.308v0.308H51.63v-0.308h-0.615v0.308h-0.923v0.615h-0.923v0.308h-1.231v0.615H47.63v0.308h-0.615v0.308h-0.308v0.308
		h-0.308v0.308h-0.615v0.308H44.86v0.308h-0.308v0.308h-0.308v0.308h-0.308v0.308H43.63v0.923h0.308v0.308H43.63v-0.308h-0.615
		v-0.308h-0.308v0.615h-0.308v0.308h0.615v0.308h0.308v0.308h0.308v0.615h0.308v0.615h0.308v0.308h0.308v0.308h0.308v0.308h0.308
		v0.308h0.308v0.308h0.615v0.308h1.231v-0.615h0.615v-0.308h1.231v-0.308h0.615v-0.308h0.308v-0.615h0.615v-0.308h0.308v-0.308
		h0.308v-0.308h0.615v-0.308h0.308v-0.308h0.615v-0.615h0.308v-0.308h0.615v-0.308h0.923v-0.308h0.923v-0.308h1.231v-0.308h1.231
		v-0.308h0.923v-0.308h0.923v-0.308h0.923v-0.308h0.923v-0.308h0.308v0.308h0.615v-0.615h0.308v-0.615h0.308v-0.308h0.308v-0.615
		h0.308v-0.308H63.63v-0.615h0.308v-0.308H63.63v-0.308h0.308v-0.308H63.63v-0.615h-0.308v-1.231h-0.308v-1.538h-0.308v-0.923
		h-0.308v-0.615h0.615v-0.308h-0.308v-0.923h-0.308v-0.923h-0.308v-0.308h0.615v-0.308h-0.308v-0.615h0.308V94.79h-0.308v-0.308
		h0.308v-0.308h-0.308v-0.308h0.308v-0.615h0.308v-0.308h-0.308v-0.615h0.308v-1.231h0.308v-1.231h0.308v-0.615h0.308v-0.308H63.63
		v-0.308h0.308v-0.923h0.308v-1.231h0.308v-0.615h-0.308v-1.231h0.308v-0.615h0.308v-0.308h0.308v0.308h0.308v-0.308h0.923v-0.308
		h0.308v-0.308h0.923v-0.615h0.615v-0.615h0.615V81.56h0.308v-0.615h0.615v-0.308h0.308v-0.308h0.615v-0.308h0.308v-0.308h0.308
		v-0.308h0.308v-0.308h0.308v-0.615h0.308v-0.308h0.308v-0.308h0.923V77.56h0.923v-0.615h0.308v-0.308h0.615v-1.231h0.615V74.79
		h0.308v-0.308h0.308v-0.308h0.308V73.56h0.308v-0.308h0.308v-0.308h0.308v-0.308h0.308v-0.923h0.308v-0.308h0.308V70.79h0.615
		v-0.615h0.308V69.56h0.308v-0.308h0.308v-0.615h0.308v-0.308h0.308v0.308h0.615v-0.615h0.308v-0.615h0.308V66.79h0.308v-0.615
		h0.308v-0.308h-0.308V65.56h0.308v-0.308h-0.308v-0.308h0.308v-0.308h-0.308v-1.538h0.308V62.79h-0.308v-0.923h-0.308V61.56h0.308
		v-0.308h-0.308v-0.308h0.308v-0.308h-0.615v-0.308h0.308v-1.231h-0.308V58.79h0.615v-0.923h-0.923V57.56h0.308v-0.308h-0.308
		v-0.615h-0.308v-1.231H80.86v-0.308h-0.308v-0.923h-0.308v-1.538h0.308v-0.308h-1.231v-0.923h-0.308v-0.308h0.615v0.615h0.308
		v0.308h0.615v-0.308h-0.308v-0.615h-0.308v-0.923H79.63v-0.308h-0.308v-1.538h-0.308v0.308h-0.308v-0.615h-0.615v-0.615h-0.308
		V46.79h0.308v-0.615h-0.308V45.56h0.308v-0.308h-0.615v-0.615h0.308v-0.308h-0.308v-0.308h0.308v-0.923h-0.615v-0.615h0.615v-0.308
		h0.615v-0.308h0.308v0.308h0.308v0.308h0.308v0.308h0.308v0.308h0.308v0.615h0.308v0.308h0.308v0.308h0.308v0.615h0.308v0.923
		h0.308v0.923h0.308v0.923h0.308v1.231h-0.308v0.308h0.615v0.923h-0.308v1.231h0.308v1.538h0.308v1.231h0.308v0.615h-0.308v0.308
		h0.308v0.923h0.308v0.615h0.308v1.846h-0.308v0.308h-0.308v0.308h0.615V58.79h0.308v2.769h0.308v3.077h0.308v1.231h-0.308v0.308
		h0.308v0.615h-0.308v0.308h0.308v0.615h-0.308v1.231h-0.308v0.923H83.63v0.308h-0.308v0.615h-0.308v0.308h-0.308v0.615h-0.308
		v0.615h-0.308v0.308h-0.308v0.308h-0.308v0.923h-0.308v0.308H80.86v0.615h-0.615v1.538h0.308v0.615h0.308v0.308h0.308v0.308h0.308
		v0.615h1.538v0.308h2.154v-0.308h0.308V77.56h0.308v0.615h0.308v0.308h0.308v0.308h0.308v0.308h0.615v0.308h0.923v-0.308h0.615
		V78.79h0.308v-0.308h0.308v-0.308h0.615v-0.308h0.615V77.56h0.308v-0.308h0.308v0.308h0.308v-0.308h0.308v-0.615h0.308v-0.308
		h-0.308v-0.615h0.308v-0.308h-0.308V74.79h0.308v-0.615h0.308v-0.308h0.615v-0.923h0.308v-0.615h0.308v-0.308h0.615V70.79h0.308
		v-0.923h0.923v-1.231h0.308v-0.308H95.63v-0.308H95.937z M92.86,56.021h0.308v0.308H92.86V56.021z M38.706,74.483h-0.308v-0.308
		h0.308V74.483z M31.322,107.098h-0.308v0.308h-0.308v0.308h-0.308v-0.615h-0.308v-0.308h1.231V107.098z M31.63,106.483h-0.308
		v-0.308h0.308V106.483z M32.553,108.636h-0.308v-0.308h0.308V108.636z M32.553,104.944h-0.615v0.308H31.63v0.308h-0.308v-0.308
		h0.308v-0.308h0.308v-0.308h0.308v-0.308h0.308V104.944z M34.706,104.021h0.308v1.231h-0.308V104.021z M36.86,106.175h-0.615v0.615
		H35.63v0.308h-0.308v-0.308h-0.308v-0.308h0.308v-0.308h0.615v-0.308h0.923V106.175z M38.399,102.483h-0.308v1.231h-0.308v0.308
		h-0.308v0.923h-0.308v-0.308H36.86v0.615h-0.308v-0.308h-0.308v0.308h-0.308v-0.308h0.308v-0.308h0.615v-0.308h0.308v-0.615h0.308
		v-0.923h0.308v-0.308h0.308v-0.308h0.308V102.483z M39.014,98.483h-0.308v-0.308h0.308V98.483z M47.937,98.79h0.308v0.308h-0.308
		V98.79z M47.322,94.79h0.308v0.308h-0.308V94.79z M47.322,100.021h0.308v-0.308h0.308v0.615h-0.615V100.021z M47.322,100.636h0.308
		v0.308h-0.308V100.636z M47.937,37.56h0.308v0.615h-0.308V37.56z M47.63,46.483h0.308v0.308H47.63V46.483z M47.937,57.867v0.308
		H47.63v-0.308H47.937z M47.322,47.713h0.308v0.308h-0.308V47.713z M47.322,48.636h0.308v0.308h-0.308V48.636z M47.014,52.944h0.308
		v-0.308h-0.308v-0.308h0.615v0.615h-0.308v0.923h-0.308V52.944z M46.091,67.098v0.308h-0.308v-0.308H46.091z M45.783,62.79v-0.308
		h0.308v0.308H45.783z M46.091,68.021v-0.308h0.308v0.308H46.091v0.308h-0.308v-0.308H46.091z M46.091,62.175v-0.308h0.308v0.308
		H46.091z M45.476,55.098h0.308v0.308h-0.308V55.098z M45.476,56.636h0.308v-0.615h0.308v1.231h-0.615V56.636z M45.476,64.021h0.308
		v0.308h-0.308V64.021z M45.476,97.252v-0.308h0.308v0.308H45.476z M45.783,97.867v0.308h-0.308v-0.308H45.783z M45.476,96.636
		v-0.308h0.308v0.308H45.476z M45.476,77.867h-0.308V77.56h0.308V77.867z M44.553,63.406v-0.308h0.615v0.615H44.86v-0.308H44.553z
		 M45.168,57.252v0.308H44.86v-0.308H45.168z M44.86,47.406h-0.308v-0.308h-0.308v-0.615h0.308v0.615h0.308V47.406z M43.937,47.713
		v-0.308h0.308v0.308H43.937z M44.245,81.867v0.308h-0.308v-0.308H44.245z M43.937,45.252v0.308H43.63v-0.308H43.937v-0.308H43.63
		v-0.923h0.308v0.308h0.308v0.308h-0.308v0.308h0.308v0.308H43.937z M43.014,54.79v-0.308h0.308v0.308H43.014z M43.322,55.713v0.308
		h-0.308v-0.308H43.322z M43.322,55.098h0.308v0.308h-0.308V55.098z M43.322,46.483v-0.308h0.308v0.308H43.322z M43.63,87.098h0.308
		v0.308H43.63V87.098z M44.245,42.79v-0.308h0.308v0.308H44.245z M39.937,49.867H39.63V49.56h0.308V49.867z M39.937,48.021v-0.308
		h0.308v0.308H39.937z M40.86,54.79h-0.308v-0.308h0.308V54.79z M40.86,54.175h-0.308v-0.308h-0.308v-0.615h0.308v0.308h0.308
		V54.175z M40.86,44.021v-0.615h0.308v-0.308h0.308v0.615h-0.308v0.308H40.86z M41.476,51.406v0.615h-0.308v-0.615H41.476z
		 M42.091,56.329h-0.308v-0.308h0.308V56.329z M42.091,55.098h-0.308v-0.615h-0.308V53.56h-0.308v-0.615h0.308v0.308h0.308v1.231
		h0.308V55.098z M42.091,42.483v0.308h-0.308v-0.615h0.308V41.56h0.308v-0.308h0.308v-0.308h0.308v-0.615h0.308v-0.308h0.615v-0.615
		h0.615v0.308h-0.308v0.308h-0.308v0.308H43.63v0.615h-0.615v0.308h-0.308v0.308h-0.308v0.923H42.091z M42.706,58.175v-0.308h-0.308
		v-0.615h0.308v-0.308h0.308v0.308h0.308v1.231h-0.308v-0.308H42.706z M41.168,77.867v0.308H40.86v-0.308H41.168z M40.553,75.713
		h0.308v0.308h-0.308V75.713z M40.86,78.483v0.308h-0.308v-0.308H40.86z M40.245,76.329h0.308v0.615h-0.308V76.329z M40.245,79.098
		h0.308v0.308h-0.308V79.098z M40.86,83.406h-0.308v0.308h0.308v0.308h-0.308v0.615h-0.308v-1.538h0.308v-0.615h0.308V83.406z
		 M41.476,81.867h-0.923v-0.923h-0.308v-0.308h0.308v-0.308h0.308v0.615h0.308v0.615h0.308V81.867z M41.476,78.79h-0.308v-0.308
		h0.308V78.79z M41.476,76.329h-0.308v-0.308h0.308v-0.308h0.308v0.308h-0.308V76.329z M41.476,74.79v-0.308h0.308v0.308H41.476z
		 M42.091,96.636h-0.308v-0.615h0.308V96.636z M42.091,77.867h-0.308V77.56h0.308V77.867z M42.091,71.406v0.308h-0.308v0.308h-0.308
		v0.308h-0.308v-0.308h0.308v-0.308h0.308v-0.615h0.615v0.308H42.091z M42.706,102.483h-0.308v-0.308h0.308V102.483z M42.706,70.79
		h-0.308v-0.308h0.308v-0.308h0.308v-0.308h0.308v0.615h-0.615V70.79z M43.322,99.713h-0.308v-0.308h0.308V99.713z M43.63,98.483
		h-0.308v-0.308h0.308V98.483z M44.245,97.252h-0.308v0.615H43.63v-0.615h0.308v-0.615h0.308v-0.308h-0.308v-0.308h0.308v-0.615
		h0.308v0.308h0.308v0.308h-0.308v0.615h-0.308V97.252z M45.168,100.329h-0.615v-0.923h0.308v0.308h0.308V100.329z M45.168,96.944
		H44.86v-0.308h0.308V96.944z M45.168,78.483v0.308H44.86v-0.308H45.168v-0.308h0.308v0.308H45.168z M46.091,101.56h-0.308v0.308
		h-0.308v-0.615h0.615V101.56z M46.399,76.944h-0.308v-0.308h0.308V76.944z M47.014,92.021v0.308h-0.308v-0.308H47.014z
		 M46.399,70.79v0.615h-0.615v-0.308h0.308V70.79H46.399v-0.615h0.308v0.615H46.399z M47.014,79.098h-0.308V78.79h0.308V79.098z
		 M47.014,55.406v0.308h-0.308v-0.308H47.014v-0.308h0.308v0.308H47.014z M48.553,68.329h-0.308v0.615h0.308v0.615h-0.308v0.308
		h-0.308V69.56H47.63v-0.308h-0.308v-0.923h0.923v-0.615h0.308V68.329z M48.553,62.483h-0.308v0.308h-0.308v-0.615H47.63V61.56
		h0.923V62.483z M44.553,110.175h0.308v-0.308h0.308v0.308H44.86v0.308h-0.308V110.175z M45.476,110.483v0.308h-0.308v-0.308H45.476
		z M44.86,112.021v-0.615h-0.308v-0.615h0.308v0.615h0.308v0.615H44.86z M45.476,112.944h-0.308v-0.308h0.308V112.944z
		 M45.783,111.713h-0.308v-0.308h0.308V111.713z M47.322,112.636h-0.308v0.308h-0.615v-0.308h0.308v-0.308h0.615V112.636z
		 M47.322,112.021h-0.308v-0.308h0.308V112.021z M47.322,108.944h-0.615v-0.308h0.308v-0.615h0.308V108.944z M48.245,109.56h-0.308
		v0.615H47.63v-0.615h0.308v-0.615h0.308V109.56z M49.168,108.636H48.86v0.615h-0.308v-0.615h0.308v-0.308h-0.308v-0.308h0.615
		V108.636z M49.783,107.098h-0.308v0.615h-0.308v-0.615h0.308v-0.308h0.308V107.098z M51.937,109.56v-0.308h0.308v0.308H51.937z
		 M52.553,110.175h-0.308v-0.308h0.308V110.175z M54.399,108.636h-0.308v-0.308h0.308V108.636z M54.399,104.021h-0.308v0.923h0.308
		v0.308h-0.308v-0.308h-0.308v-0.308h-0.308v-0.308h0.308v-0.308h0.308v-0.615h-0.615v-0.308h0.308v-0.308h0.308v0.615h0.308
		V104.021z M55.322,88.636h0.308v-0.615h-0.308v-0.308h0.308v-0.615h0.308v2.154h-0.615V88.636z M55.322,96.329v-0.308h0.308v-0.615
		h0.308v1.231H55.63v-0.308H55.322z M55.937,96.944v0.308H55.63v-0.308H55.937z M56.245,102.483h-0.308v-0.308H55.63v-0.308h0.308
		v0.308h0.308V102.483z M57.168,98.175H56.86v-0.308h0.308V98.175z M57.168,96.944H56.86v-0.308h0.308V96.944z M57.168,90.79H56.86
		v-0.308h-0.308v-0.615h0.308V89.56h-0.308v-0.308h-0.308v-0.308h0.308v0.308h0.308v-0.923h0.308V90.79z M71.322,36.329v0.308
		h-0.308v-0.308H71.322z M71.014,37.56v-0.308h-0.308v-0.308h0.615v0.615H71.014z M71.322,38.175v0.615h-0.308v-0.615H71.322z
		 M70.399,32.636v-0.308h0.308v0.308H70.399z M71.014,30.483v0.308h-0.308v-0.308H71.014z M70.706,25.56v0.308h-0.615V25.56H70.706z
		 M70.399,35.098v0.308h-0.308v-0.308H70.399z M69.783,23.098h0.308v0.308h0.308v0.308h-0.308v-0.308h-0.308V23.098z M69.168,25.252
		h0.308v0.308h-0.308V25.252z M68.553,23.098h0.308v0.308h-0.308V23.098z M68.245,22.79v0.308H67.63V22.79H68.245z M67.937,30.79
		v-0.615h0.308v0.615H67.937z M68.245,31.406v0.308h-0.308v-0.308H68.245z M67.63,45.56v0.615h-0.308v0.308h-0.308v-0.615h0.308
		v-0.615h0.308v-0.308h0.308v0.615H67.63z M67.937,51.406v0.308H67.63v-0.308H67.937z M64.86,58.483v0.308h-0.308v0.615h-0.308
		V58.79h0.308v-0.923h0.308V57.56h0.308v0.923H64.86z M65.168,62.175v0.615H64.86v0.308h-0.308v0.308h-0.308v-0.308h0.308v-0.615
		h0.308v-0.308H65.168z M63.322,19.713h-0.308v-0.308h0.308V19.713z M63.63,20.944v0.308h-0.308v-0.308H63.63z M63.322,24.636v0.308
		h-0.308v-0.308H63.322z M63.322,25.252v0.615h-0.308v0.308h-0.308v-0.308h0.308V25.56h-0.308v-0.308H63.322z M63.014,28.944v-0.308
		h0.308v0.308H63.014z M63.322,29.56v0.308h-0.308V29.56H63.322z M63.014,28.329v-0.308h0.308v0.308H63.014z M63.014,27.713v-0.308
		h0.308v0.308H63.014z M62.706,18.79h-0.308v-0.308h0.308V18.79z M62.706,22.483v0.308h-0.308v-0.308H62.706z M62.706,36.636h0.308
		v0.923h-0.308V36.636z M62.706,32.636v-0.308h0.308v0.308H62.706z M62.706,27.098V26.79h0.308v0.308H62.706z M63.014,31.098h0.308
		v0.308h-0.308V31.098z M63.322,36.636h0.308v-0.615h0.308v0.923h-0.615V36.636z M64.86,32.329v0.308h-0.615v-0.615h0.308v0.308
		H64.86z M65.168,56.021v0.308H64.86v-0.308H65.168z M64.245,32.944v0.308h-0.308v-0.308H64.245z M63.937,25.867V25.56h0.308v0.308
		H63.937z M64.245,36.636h0.308v0.308h-0.308V36.636z M64.245,24.944v0.308h-0.308v-1.231h0.615v0.923H64.245z M64.245,19.713
		h-0.308v0.615H63.63v-0.615h0.308v-0.615h0.308V19.713z M63.937,42.483h0.308v0.308h-0.308V42.483z M65.168,61.252h0.308v-0.308
		h0.308v-0.615h0.308v-0.308h0.308v-0.308h0.308v0.308h-0.308v1.231h-0.308v0.308h-0.923V61.252z M66.091,37.867v0.308h-0.308
		v-0.308h-0.308V37.56h0.308v0.308H66.091z M66.399,50.79v0.308h-0.308V50.79H66.399z M66.091,37.56v-0.308h0.308v0.308H66.091z
		 M66.091,58.483h-0.615v-0.308h0.615V58.483z M66.706,58.79v0.308h-0.615V58.79H66.706z M65.476,40.021h-0.308v-0.308h0.308V40.021
		z M65.476,44.636v0.308h-0.308v-0.308H65.476z M65.476,55.406v0.308h-0.308v-0.308H65.476z M65.783,80.021h0.308v-0.308h0.308
		v0.308h-0.308v0.308h-0.308V80.021z M66.091,64.021v0.308h-0.308v-0.308H66.091v-0.615h0.308V62.79h0.308v-0.615h0.308v-0.308
		h0.308v-0.615h0.308v0.615h-0.308v0.923h-0.308v0.308h-0.308v0.308h-0.308v0.615H66.091z M67.014,56.021v-0.308h0.308v0.308H67.014
		z M67.322,34.79v-0.308h0.308v0.308H67.322z M67.014,20.021h0.308v-0.308h0.308v0.615h-0.308v0.615h-0.308V20.021z M66.706,30.175
		h0.308v-0.308h-0.308v-0.615h0.308v-0.308h-0.308v-0.308h0.308v-0.308h0.308v0.308h0.308v0.308h-0.308v0.615h-0.308v0.308h0.308
		v0.308h-0.308v0.923h-0.308V30.175z M66.706,32.944h0.308v0.308h-0.308V32.944z M66.706,33.56h0.308v0.308h-0.308V33.56z
		 M66.706,56.944h-0.308v0.308h-0.615v-0.308h0.308v-0.308h0.308v-0.308h0.308V56.944z M66.091,17.56h0.308v0.308h-0.308V17.56z
		 M66.091,18.175h0.308v0.308h-0.308V18.175z M66.091,33.867v0.615h-0.308v0.615h-0.308v-0.615h0.308v-0.615H66.091z M65.168,17.867
		h0.308V17.56h0.308v0.308h-0.308v0.308h0.308v0.615h-0.308v-0.615h-0.308V17.867z M65.168,19.098h0.308v0.308h-0.308V19.098z
		 M65.168,19.713h0.615v0.308h-0.308v0.308h-0.308V19.713z M65.476,25.252v0.615H64.86v0.308h0.308v0.308H64.86v-0.308h-0.308
		v-0.923H65.476z M64.553,15.713h0.308v0.308h-0.308V15.713z M64.245,17.252v0.615h0.308v0.308h-0.615v-0.308H63.63v-0.615H64.245z
		 M63.014,15.713h0.308v-0.308h0.308v0.308h0.308v0.308H63.63v-0.308h-0.308v0.308h-0.308V15.713z M62.706,16.636h0.308v0.615
		h-0.308v0.308h-0.308v-0.615h0.308V16.636z M62.091,15.713h0.308v0.308h-0.308V15.713z M62.091,36.329v-0.308h0.308v0.308H62.091
		v0.308h0.308v0.308h-0.308v0.615h-0.308v-0.615h0.308v-0.308h-0.308v-0.308H62.091z M62.091,45.252v0.308h-0.308v-0.308H62.091z
		 M61.476,19.098h0.308v0.308h-0.308V19.098z M61.476,19.713h0.308v0.615h-0.308V19.713z M61.476,35.406h0.308v0.308h-0.308V35.406z
		 M61.476,42.175h0.308v0.308h-0.308V42.175z M60.86,55.713v0.308h-0.308v-0.308H60.86v-0.615h0.308v0.615H60.86z M61.168,56.636
		v0.308H60.86v-0.308H61.168z M59.937,94.79v0.308H59.63v0.923h-0.308V94.79H59.937z M59.322,68.636h-0.308v-0.308h0.308V68.636z
		 M57.783,30.79h0.308v-0.308h0.308v0.308h0.308v0.923h-0.308v0.308h-0.308v-0.923h-0.308V30.79z M57.476,26.483V25.56h0.308v0.923
		H57.476z M57.168,20.944v-0.308h0.615v0.308H57.168z M58.399,27.713v-0.308h0.308v0.308h0.308v0.308h-0.308v0.308h-0.308v-0.308
		h0.308v-0.308H58.399z M60.245,35.713v0.308h-0.308v-0.308H59.63v0.308h-0.615v-0.308h0.308v-0.308h0.615v0.308H60.245z
		 M59.63,44.636v0.308h-0.308v-0.308H59.63z M59.322,42.79v-0.308h0.308v0.308H59.322z M59.63,55.406h0.308v0.308h0.308v0.308
		h-0.308v0.308H59.63V55.406z M58.706,29.56v-0.308h0.308v0.308H58.706z M58.399,44.944h0.308v0.308h-0.308V44.944z M58.399,45.56
		v0.308h-0.308V45.56H58.399z M58.091,50.175h0.308v-0.308h0.308v0.308h-0.308v0.308h-0.308V50.175z M58.399,54.79h0.308v0.308
		h-0.308V54.79z M58.706,58.483v-0.615h0.308v0.615H58.706v0.615h-0.308v-0.615H58.706z M58.399,54.483v-0.308h0.308v-0.308h0.308
		v0.615H58.399z M58.399,52.329v-0.308h0.308v-0.308h0.308v0.615H58.399z M58.399,38.79v-0.615h0.308v-0.923h0.308v-0.615h0.308
		v0.615h-0.308v1.538H58.399z M59.322,56.636h0.308v0.308h-0.308V56.636z M59.63,85.56v-0.308h0.308v-0.615h0.308v0.615h-0.308
		v0.308H59.63z M59.937,72.329v-0.308h0.308v0.308H59.937z M59.937,67.406v-0.308h0.308v0.308H59.937z M59.937,65.252v0.308H59.63
		v-0.308H59.937v-0.308h0.308v-0.308h0.308v0.308h-0.308v0.308H59.937z M60.245,56.944v-0.615h0.308v0.615H60.245z M60.245,31.406
		v-0.308h0.308v0.308H60.245z M60.553,64.021h0.308v0.308h-0.308V64.021z M60.86,25.56v0.308h-0.308V25.56H60.86z M60.553,23.406
		v-0.308h0.308v0.308H60.553z M60.86,46.175v-0.308h0.615v0.308H60.86z M61.168,31.098H60.86V30.79h0.308V31.098z M60.245,17.252
		h0.615v0.308h-0.615V17.252z M59.937,19.098h0.308v0.308h-0.308V19.098z M59.937,32.636h0.308v0.308h-0.308V32.636z M59.63,34.79
		h0.308v0.308H59.63V34.79z M59.322,23.098h-0.308V22.79h0.308V23.098z M57.783,17.867h0.308V17.56h0.308v-0.308h0.615v0.308h-0.308
		v0.308h-0.308v0.615h-0.615V17.867z M56.86,19.713v0.615h-0.308v-0.615H56.86v-0.308h0.923v0.308H56.86z M57.168,25.252v-0.308
		h0.308v0.308H57.168z M57.783,57.252v-1.538h0.308v-0.308h0.308v0.615h-0.308v1.231H57.783v0.308h-0.615v-0.308H57.783z
		 M58.399,62.175v0.308h-0.308v-0.308H58.399z M56.86,55.406v0.308h-0.308v0.308h-0.308v1.231h-0.308v-0.308H55.63v-0.923h0.615
		v-0.308h-0.308v-2.769h0.308v-0.308h-0.308v-0.308h0.615v0.615h-0.308v0.615h0.308v0.615h0.308V53.56h0.308v0.615H56.86v0.615
		h-0.308v0.615H56.86z M56.553,61.56v0.308h-0.308V61.56H56.553z M53.168,65.252v-1.231h0.308v-0.308h0.308v-0.308h0.308V62.79
		h0.615v0.308h-0.308v0.615h-0.308v0.308h-0.308v0.308h-0.308v0.923H53.168z M53.476,67.098v0.308h-0.308v-0.308H53.476z
		 M54.399,48.021v-0.308h0.308v-0.308h0.615v0.615h-0.308v0.308h-0.308v-0.308H54.399z M53.783,42.175v-0.308h0.308v0.308H53.783z
		 M54.091,46.79v0.308h-0.308V46.79H54.091z M53.783,41.56v-0.308h0.308v-0.308h0.308v-0.615h-0.308v-0.308h0.308v-0.308h0.308
		v0.615h0.308v0.308h-0.308v0.615h-0.308v0.308H53.783z M53.783,37.56v-0.308h0.308v0.308H53.783z M55.322,38.175v0.308h-0.308
		v-0.308h-0.308v-0.308h0.308v0.308H55.322z M56.245,47.406V46.79h0.308v0.615H56.245v0.615H55.63v-0.308h0.308v-0.308H56.245z
		 M55.937,42.79v-0.308h0.308v0.308H55.937z M55.63,40.944h-0.308v0.308h-0.308v-0.308h0.308v-0.923h0.308V40.944z M55.322,48.636
		v-0.308h0.308v0.308H55.322z M55.63,48.944v0.615h-0.308v-0.615H55.63z M55.322,37.56h-0.308v-0.308h0.308V37.56z M55.322,49.867
		v0.308h-0.308v-0.308H55.322z M54.706,55.406h0.615v0.308h-0.615V55.406z M55.322,63.098h0.308v-0.615h0.308v-0.308h0.308v0.308
		h-0.308v0.615H55.63v0.615h-0.308V63.098z M57.476,52.636v0.308h-0.308v-0.308H57.476z M56.86,36.944h0.308v0.308H56.86V36.944z
		 M56.553,40.021h0.308v0.308h-0.308V40.021z M56.553,40.636h0.308v0.923h-0.308v0.615h-0.308V41.56h0.308V40.636z M54.706,34.79
		v-0.308h0.615v0.308h0.308v-0.308h0.615v0.308H55.63v0.308h-0.308v0.308h0.308v0.308h0.308v0.308H55.63v-0.308h-0.308v-0.308
		h-0.308v0.615h-0.615v-0.308h0.308v-0.308h-0.923v-0.308h0.615V34.79H54.706z M53.476,33.56h0.923v0.308h-0.923V33.56z
		 M52.553,40.329h0.308v-0.308h0.308v-0.308h0.308v-0.308h0.308v0.615h-0.308v0.923H52.86v0.308h-0.308v0.923h-0.615v-0.308h0.308
		V41.56h-0.308v-0.308h0.308v-0.615h0.308V40.329z M53.168,47.098v0.615H52.86v-0.615H53.168z M52.245,42.79v0.308h-0.308v0.615
		H51.63V42.79H52.245z M51.63,36.636h0.308v-0.308h0.308v0.615H51.63V36.636z M51.63,37.252h0.308v0.308H51.63V37.252z
		 M51.63,40.021v0.615h-0.308v0.308h-0.308v0.615h-0.308v0.615h-0.308v-0.923h0.308v-0.308h-0.308v-0.308h0.615v-0.615H51.63z
		 M51.63,44.944v0.308h-0.308v-0.308H51.63z M49.476,44.944v-0.615h0.308v-0.308h0.308v0.308h-0.308v0.615H49.476z M49.783,46.483
		v0.308h-0.308v-0.308H49.783z M49.783,43.713v-0.308h0.308v-0.308h0.308v0.308h-0.308v0.308H49.783z M50.091,39.406v0.923h-0.308
		v0.308h0.308v0.308h-0.308v-0.308h-0.308v-0.923h0.308v-0.615h0.923v0.308H50.091z M49.476,35.406h0.308v0.308h-0.308V35.406z
		 M48.86,37.867h0.308V37.56h0.308v-0.308h0.308v-0.308h0.615v-0.308h0.308v-0.308h0.615v0.615h-0.308v0.615h-0.308v0.923h-0.308
		v0.308h-0.308v-0.615h0.308V37.56h0.308v-0.615h-0.308v0.308h-0.308v0.308h-0.308v0.923h-0.308v0.615h-0.308v-0.615h0.308v-0.308
		H48.86V37.867z M48.86,47.406h0.308v0.308H48.86V47.406z M48.86,55.713h0.308v0.615H48.86V55.713z M49.476,63.713v0.308h-0.308
		v-0.308H49.476z M48.86,57.252h0.308v0.308H48.86V57.252z M48.86,65.252h0.308v-0.308h0.308v0.308h-0.308v0.308H48.86V65.252z
		 M49.168,71.098h0.308v0.308h0.308v0.308h-0.308v-0.308h-0.308V71.098z M50.091,78.483h-0.308v0.308h-0.308v-0.615h0.615V78.483z
		 M50.399,72.636h-0.308v-0.308h0.308V72.636z M51.014,81.252h-0.308v-0.308h0.308V81.252z M51.322,73.867h-0.308V73.56h0.308
		V73.867z M52.245,68.944h-0.308v-0.308h0.308V68.944z M52.245,67.713h-0.308v0.308H51.63v-0.923h0.615V67.713z M51.63,61.56v-0.615
		h-0.308v-0.308h0.308v-0.615h-0.615v-0.308h-0.308v-0.308h-0.308v-0.923h-0.308v-0.308h0.308v-0.308h-0.308V57.56h-0.308v-0.308
		h0.308v-0.308h-0.308v-0.308h0.308v-0.308h-0.308V53.56h-0.308v-0.308h0.308v-1.538h-0.308v-0.308h-0.308v-0.308h0.615v-0.615
		h0.615v-0.308h-0.615v-0.308h0.308V49.56h0.615v-0.308h-0.308v-0.308h-0.308v-0.308h0.308v-0.615h0.308v-0.615h0.308v0.308h0.308
		V46.79h0.308v0.615h0.923v0.615h0.308v0.615h0.308v0.615h0.308v0.615h0.308v0.308h0.308v1.231h-0.308v0.308h0.308v0.923h0.308
		v0.308h-0.308v0.923h-0.308v0.308h0.308v0.308h-0.308v0.308h0.308v0.615h-0.308v0.308h0.615v0.308h-0.615v0.615h-0.308v0.615h0.308
		v0.308h-0.308v0.308h0.308v0.308h-0.308v0.923h0.308v0.308h-0.308v0.308h-0.308v0.615H52.86v0.615h-0.308v0.615H51.63z
		 M53.476,74.483h-0.923v-0.615h0.308V73.56h0.308v0.308h0.308V74.483z M53.476,68.636h-0.308v0.308H52.86v-0.615h0.308v-0.308
		h0.615v-0.308h0.308v-0.308h0.308v0.308h-0.308v0.308h-0.308v0.308h-0.308V68.636z M54.399,68.329v0.308h-0.308v-0.308H54.399z
		 M55.937,68.944H55.63v0.308h-0.308v0.308h-0.308v0.308h-0.308v0.308h-0.615v0.308h-0.308v-0.615h0.615v-0.615h0.308v-0.308h0.615
		v-0.308h0.615V68.944z M56.245,63.713v0.615h-0.308v0.615H55.63v-0.615h0.308v-0.615H56.245v-0.615h0.308v-0.615h0.308v-0.308
		h0.308v0.308h0.308v0.308h-0.308v0.615h-0.615v0.308H56.245z M56.86,64.636v0.308h-0.308v-0.308H56.86z M58.091,72.944h-0.308
		v-0.308h0.308V72.944z M58.706,63.406v0.923h-0.615v0.923h-0.308v0.615h-0.308v0.308h-0.308v0.308h-0.615v-0.308h0.308V65.56h0.308
		v-0.308h0.308v-0.615h0.308v-0.615h0.308v-0.308h0.308v-0.308H58.706v-0.308h0.308V62.79h0.308v0.308h-0.308v0.308H58.706z
		 M59.322,89.252v0.615h-0.308v0.615h0.308v0.308h-0.615V89.56h0.308v-0.308H59.322z M59.014,105.867h0.308v0.615h-0.308V105.867z
		 M58.706,91.713v-0.615h0.308v0.615H58.706z M58.706,78.175h0.308v0.308h-0.308V78.175z M58.399,83.713h0.308v0.308h0.308v0.308
		h-0.308v-0.308h-0.308V83.713z M58.399,93.252h0.308v0.308h-0.308V93.252z M58.706,96.329v0.308h-0.308v0.615h0.308v0.308h-0.308
		v-0.308h-0.308v-0.923H58.706z M58.399,101.252v0.308h-0.308v-0.308H58.399z M57.783,80.944h0.308v0.308h-0.308V80.944z
		 M57.783,103.713v-0.308h0.308v0.308H57.783z M59.937,107.406h-0.923v0.308h-0.923v-0.308h0.308v-0.308h0.615v-0.308h0.615v0.308
		h0.308V107.406z M60.245,96.329h-0.308v-0.308h0.308V96.329z M60.245,86.483h0.308v-0.615h0.308v0.615h-0.308v0.308h-0.308V86.483z
		 M60.86,105.867h-0.308v-0.308h0.308V105.867z M61.168,90.175H60.86v0.615h-0.308v-0.923h0.615V90.175z M61.476,65.56h-0.308v0.308
		H60.86v0.308h-0.308v0.308h-0.308v-0.308h0.308v-0.308h0.308v-0.615h0.615V65.56z M61.476,64.944h-0.308v-0.308h0.308V64.944z
		 M61.476,56.021v-0.308h0.308v-0.308h-0.308v-0.308h0.308V54.79h0.308v0.308h0.308v0.308h-0.308v0.308h-0.308v0.308H61.476z
		 M61.783,64.021v-0.308h0.615v0.308H61.783z M62.706,90.483h-0.308v-0.615h0.308V90.483z M62.706,73.252h-0.615v-0.308h0.308
		v-0.308h0.308V73.252z M62.706,62.175h-0.308v-0.308h0.308V62.175z M62.706,56.944h-0.308v0.308h-0.308v-0.615h0.615V56.944z
		 M62.399,54.483v-0.308h0.308v0.308H62.399z M62.706,56.021v-0.308h0.615v0.308H62.706z M62.706,48.021v-0.308h0.308v0.308H62.706z
		 M63.322,79.098h-0.308V78.79h0.308V79.098z M63.63,78.483h-0.308v-0.308h0.308V78.483z M63.63,66.483h-0.308v-0.308h0.308V66.483z
		 M63.63,58.175h-0.308v0.308h-0.308v-0.308h0.308v-0.308h0.308V58.175z M63.937,48.636H63.63v0.308h-0.308v-0.308h0.308v-0.615
		h0.308V48.636z M63.937,43.713v0.615H63.63v0.615h-0.308v0.923h-0.308v0.308h-0.308v0.923h-0.615v0.615h-0.308v-0.615h0.308v-0.923
		h0.308V45.56h0.308v-0.615h0.308v-0.308h0.308v-1.231h-0.308v-0.308h0.923v0.308h0.308v0.308H63.937z M64.245,79.406v-0.308h0.308
		v0.308H64.245z M65.476,80.944h-0.308v0.308H64.86v0.308h-0.308v-0.308h0.308v-0.308h0.308v-0.615h0.308V80.944z M65.476,79.406
		h-0.308v0.308H64.86v-0.308h0.308v-0.308h0.308V79.406z M67.937,81.867h-0.615v0.615h-0.308v-0.308h-0.308v0.308h-0.615v-0.308
		h-0.308v-0.308h0.308V81.56h0.308v-0.615h0.308v0.923h0.308V81.56h0.923V81.867z M68.245,54.175h-0.308v-0.308h0.308V54.175z
		 M68.245,44.329h-0.308v-0.308h0.308V44.329z M68.245,34.79h0.308v0.308h-0.308V34.79z M68.86,73.252h-0.308v-0.308h0.308V73.252z
		 M68.86,62.79h-0.308v-0.308h0.308V62.79z M68.86,32.636h-0.308v-0.308h0.308V32.636z M68.86,28.636v-0.308h0.308v0.308H68.86z
		 M69.476,35.098h-0.308v-0.615h0.308V35.098z M69.476,32.944v-0.615h0.308v0.615H69.476z M69.783,51.713v-0.308h0.308v0.308H69.783
		z M70.399,75.713h-0.308v-0.308h0.308V75.713z M70.399,40.944v0.308h-0.308v-0.308H70.399v-0.615h0.308v0.615H70.399z M71.63,41.56
		h-0.308v1.231h-0.308v0.308h-0.308V42.79h0.308V41.56h0.308v-0.308h0.308V41.56z M81.476,64.944h0.308v0.308h-0.308V64.944z
		 M80.553,67.098h-0.308V66.79h0.308V67.098z M80.553,64.329h-0.308v-0.308h0.308V64.329z M80.553,63.098v0.308h-0.308v0.308h-0.308
		v-0.308h0.308v-0.308h-0.308V62.79h0.308v0.308H80.553z M79.937,62.483v-0.308h0.308v0.308H79.937z M79.322,56.944h0.308v0.615
		h0.308v0.308h0.308v0.308H79.63V57.56h-0.308V56.944z M79.322,68.329h0.308v0.308h-0.308V68.329z M79.014,50.483h0.308v0.308
		h-0.308V50.483z M78.399,56.944h0.308v0.308h-0.308V56.944z M78.091,30.483h0.308v0.308h-0.308V30.483z M78.399,31.713v0.308
		h-0.308v-0.308h-0.308v-0.308h0.308v0.308H78.399z M76.553,30.175h0.308v0.308h-0.308V30.175z M75.937,36.021h0.308v0.308h-0.308
		V36.021z M74.706,31.406h0.308v0.308h-0.308V31.406z M74.706,36.329h0.308v0.615h0.308v0.308h-0.308v0.615h-0.308V36.329z
		 M74.706,38.483h0.308v0.308h-0.308V38.483z M74.706,39.098h0.308v0.308h-0.308V39.098z M75.014,39.713v0.308h-0.615v-0.308H75.014
		z M75.014,51.713v-0.308h0.308v0.308H75.014z M75.322,64.329v0.308h-0.308v-0.308H75.322z M74.706,47.406v-0.308h0.308v0.308
		H74.706z M74.399,60.329v-0.308h0.308v0.308H74.399z M74.706,64.944v0.308h-0.308v-0.308H74.706z M74.399,55.406v-0.308h0.308
		v0.308H74.399z M74.091,43.406h0.308v0.308h-0.308V43.406z M73.783,38.79v-0.308h0.308v0.308H73.783z M74.399,36.944v0.308h-0.308
		v0.308h0.308v0.615h-0.615v-0.308h0.308V37.56h-0.308v-0.615H74.399z M74.091,36.329v0.308h-0.308v-0.308H74.091z M73.783,30.175
		v0.308h-0.308v-0.308H73.783z M72.86,37.56v-0.615h0.308v-0.308h0.308v1.231h-0.308v0.308h0.308v0.308H72.86v-0.615h0.308V37.56
		H72.86z M73.476,42.175v0.308h-0.308v-0.308H73.476z M73.168,43.098V42.79h0.615v0.308H73.168v0.308H72.86v-0.308H73.168z
		 M72.86,25.867h0.308v0.308H72.86V25.867z M72.553,26.483h0.615v0.615h0.308v0.308h-0.308v-0.308H72.86V26.79h-0.308V26.483z
		 M72.553,30.175h0.308v0.615h-0.308V30.175z M72.553,32.329v0.308h-0.308v-0.308H72.553z M71.937,28.944h0.308v0.308h-0.308V28.944
		z M71.937,30.175h0.308v0.308h-0.308V30.175z M71.937,36.329h0.615v0.308h-0.308v0.308h-0.308V36.329z M72.245,42.483h-0.308
		v-0.615h0.308V42.483z M72.245,38.483h-0.308v-0.308h0.308V38.483z M71.937,37.56v-0.308h0.615v0.308H71.937z M72.553,42.175h0.308
		v0.308h-0.308V42.175z M73.476,51.406H72.86v-0.308h0.615V51.406z M73.476,44.021h-0.308v-0.308h0.308V44.021z M73.783,44.329
		h0.308v0.615h0.308v0.308h-0.615V44.329z M74.091,61.252v-0.308h0.308v0.308H74.091z M75.63,72.636h-0.308v0.308h-0.308v0.308
		h-0.308v0.308h-0.308v-0.308h0.308v-0.308h0.308v-0.308h0.308v-0.308h0.308V72.636z M75.937,56.944H75.63v0.615h-0.308v-0.615
		h0.308v-0.308h0.308V56.944z M75.937,49.867H75.63v0.308h-0.308v0.308h0.308v0.308h-0.308v-0.308h-0.308v-0.308h0.308v-0.923h0.308
		v-0.308h0.308V49.867z M75.937,41.867v0.615h-0.615v-0.308h0.308v-0.308H75.937V41.56h0.308v0.308H75.937z M76.553,71.098h-0.308
		V70.79h0.308V71.098z M76.86,53.56h-0.308v-0.308h0.308V53.56z M76.86,37.867h-0.308v0.308h-0.308v-0.308h0.308V37.56h0.308V37.867
		z M77.168,34.483H76.86v-0.308h0.308V34.483z M77.476,28.944v-0.308h0.308v0.308H77.476z M78.091,32.636v0.615h-0.308v-0.923h0.615
		v0.308H78.091z M78.706,37.867h-0.308V37.56h0.308V37.867z M79.014,29.252h-0.308v-0.308h0.308V29.252z M79.63,40.329h-0.308
		v-0.308h0.308V40.329z M80.245,33.252h-0.308v-0.308h0.308V33.252z M80.86,42.483h-0.308v-0.308h0.308V42.483z M83.322,72.636
		h-0.308v-0.308h0.308V72.636z M90.091,52.636v0.308h-0.308v-0.308H90.091z M89.476,34.79h0.308v0.308h-0.308V34.79z M89.476,40.329
		h0.308v0.308h-0.308V40.329z M89.476,41.56v0.308h-0.308V41.56H89.476z M89.476,58.483v0.308h-0.308v0.308H88.86V58.79h0.308
		v-0.308H88.86v-0.308h0.308v-0.308h0.308v0.308h-0.308v0.308H89.476z M88.86,34.483h0.308v0.308H88.86V34.483z M88.86,37.252h0.308
		v0.308H88.86V37.252z M88.86,38.79h0.308v0.615H88.86V38.79z M88.86,52.329v0.308h-0.308v-0.308H88.86z M87.63,54.483v-0.308h0.308
		v0.308H87.63z M87.937,61.56v0.308H87.63V61.56H87.937z M87.937,60.329h0.308v-0.308h0.615v0.308h-0.308v0.308h-0.308v0.308h-0.308
		V60.329z M88.245,43.713v0.308h-0.308v-0.308H88.245z M87.937,41.867V41.56h0.308v0.308H87.937z M88.245,46.175v0.308h-0.308
		v-0.308H88.245z M88.553,52.944v0.308h-0.308v-0.308H88.553z M88.553,59.713v-0.308h0.308v0.308H88.553z M88.553,42.175v0.308
		h-0.308v-0.308H88.553z M88.245,40.944h-0.308v-0.308h0.308V40.944z M87.63,35.098h0.308v1.231H87.63V35.098z M87.63,36.944h0.308
		v0.308H87.63V36.944z M87.63,41.867v0.308h-0.308v-0.308H87.63z M87.014,40.329h0.308v0.308h-0.308V40.329z M87.014,42.483h0.308
		v0.308h-0.308V42.483z M86.091,41.867h0.308v0.308h-0.308V41.867z M85.476,34.175h0.308v0.308h-0.308V34.175z M85.783,42.483v0.308
		h-0.308v-0.308H85.783z M84.86,33.56h0.308v0.308H84.86V33.56z M84.245,32.944h0.308v0.308h-0.308V32.944z M83.322,33.252h0.308
		v-0.308h0.308v0.308H83.63v0.615h-0.308V33.252z M82.706,32.329h0.308v0.615h-0.308V32.329z M83.322,34.175v0.308h-0.308v-0.308
		H83.322z M82.706,33.252h0.308v0.308h-0.308V33.252z M81.168,33.56v-0.308h0.308v-0.923h0.308v0.923h-0.308v0.308H81.168z
		 M82.091,44.944h-0.308v-0.308h-0.308v-0.615h0.308v0.615h0.308V44.944z M82.399,41.252h-0.308v-0.308h0.308V41.252z
		 M82.706,40.329h-0.308v-0.308h0.308V40.329z M83.322,38.483v0.308h-0.308v0.615h-0.308v0.308h-0.308v-0.308h0.308V38.79h0.308
		v-0.615h0.615v0.308H83.322z M83.63,40.636v-0.308h0.615v0.308H83.63z M84.245,41.56v-0.615h0.308v-0.923h0.308v-0.615h0.308v0.615
		H84.86v1.231h-0.308v0.308H84.245z M84.553,57.56h0.308v0.308h-0.308V57.56z M85.168,65.252H84.86v-0.308h0.308V65.252z
		 M85.168,40.636v-0.308h0.308v0.308H85.168z M86.091,68.329h-0.615v-0.308h0.308v-0.308h0.308V68.329z M86.399,59.406h-0.308v0.308
		h0.308v0.308h-0.308v0.308h-0.308v-0.308h0.308v-0.308h-0.308v-0.308h-0.308v-0.308h0.923V59.406z M86.399,49.56v-0.615h0.308
		v-0.308h0.308v0.308h-0.308v0.615H86.399z M86.706,66.483v-0.615h0.308v0.615H86.706z M87.014,67.098v0.308h-0.308v-0.308H87.014z
		 M87.322,70.79h-0.308v0.308h-0.308V70.79h0.308v-0.308h0.308V70.79z M87.322,53.867h-0.615V53.56h0.308v-0.308h0.308v-0.615h0.308
		v-0.615h0.308v-0.308h0.308v0.615h-0.308v0.308H87.63v0.615h-0.308V53.867z M87.937,69.56H87.63v-0.308h0.308V69.56z M88.86,61.867
		v0.923h-0.308v0.615h-0.308v0.308h-0.308v0.615H87.63v-0.615h0.308V62.79h0.308v-0.615h0.308v-0.308h-0.308V61.56h1.231v0.308
		H88.86z M89.783,77.56h-0.308v-0.615h0.308V77.56z M90.091,66.79h-0.308v-0.615h0.308V66.79z M90.399,59.098h-0.615v1.538h-0.308
		v0.615H88.86v-0.615h0.308v-0.615h0.308v-0.308h-0.308v-0.308h0.308v-0.308h0.308V58.79h0.308v-0.308h0.308V59.098z M90.399,56.636
		h-0.308v0.308h-0.308v0.615h-0.308v-0.615h0.308v-0.308h0.308v-0.308h-0.308v-0.308h0.615V56.636z M90.399,42.483h-0.308v-0.308
		h0.308V42.483z M90.399,38.175h-0.308v-0.308h0.308V38.175z M91.63,56.329h0.308v0.615H91.63V56.329z M91.63,58.175h0.308v0.308
		h0.308v0.308h-0.308v0.308H91.63V58.175z M91.63,60.636h0.308v0.308H91.63V60.636z M91.014,72.329h-0.308v-0.308h0.308V72.329z
		 M91.322,64.021h-0.615v-0.615h0.308v0.308h0.308V64.021z M91.322,63.098V62.79h-0.308v-0.308h0.308v-0.308h-0.308v-0.308h0.308
		V61.56h0.615v0.308H91.63v0.615h-0.308v0.308h0.308v0.308H91.322z M92.245,73.867H91.63v-0.923h0.308v0.615h0.308V73.867z
		 M92.553,69.867h-0.308v1.231h-0.308V69.56h0.615V69.867z M92.553,68.944h-0.308v-0.308h0.308V68.944z M92.86,68.021h-0.308v-0.308
		h0.308V68.021z M92.86,64.944h-0.308v-0.308h0.308V64.944z"/>
	<rect x="55.014" y="34.79" width="0.308" height="0.308"/>
	<rect x="50.091" y="87.713" width="0.308" height="0.308"/>
	<rect x="49.783" y="97.56" width="0.308" height="0.308"/>
	<rect x="54.091" y="88.021" width="0.308" height="0.308"/>
	<rect x="49.168" y="87.406" width="0.308" height="0.308"/>
	<rect x="49.476" y="87.098" width="0.308" height="0.308"/>
</g>
</svg>
