<?xml version="1.0" encoding="iso-8859-1"?>
<!-- Generator: Adobe Illustrator 28.3.0, SVG Export Plug-In . SVG Version: 6.00 Build 0)  -->
<svg version="1.1" id="Layer_1" xmlns="http://www.w3.org/2000/svg" xmlns:xlink="http://www.w3.org/1999/xlink" x="0px" y="0px"
	 width="128px" height="128px" viewBox="0 0 128 128" enable-background="new 0 0 128 128" xml:space="preserve">
<g>
	<path d="M15.187,112.761c-0.435,0-0.764-0.151-1.138-0.325c-0.792-0.365-1.485-1.204-1.058-2.463
		c1.158-3.417,3.914-6.795,6.064-9.812c1.876-2.633,3.875-5.208,6.029-7.691c1.332-1.536,2.873-2.925,4.348-4.363
		c1.433-1.397,6.05-5.456,2.931-7.205c-2.074-1.163-5.404,0.182-6.721-2.178c-1.128-2.023,1.164-4.051,3.811-5.942
		c2.175-1.555,9.753-6.58,17.112-11.059c2.552-1.553,5.082-3.135,7.732-4.574c1.72-0.934,3.349-1.982,5.224-2.702
		c1.857-0.712,3.864,0.009,5.745-0.496c1.766-0.475,3.128-2.175,4.391-3.276c11.083-9.664,21.502-19.852,32.887-29.283
		c1.549-1.283,5.689-5.779,8.491-5.121c0.223,0.052,0.438,0.16,0.637,0.255c0.792,0.365,1.485,1.204,1.058,2.463
		c-0.362,1.066-1.056,2.094-1.643,3.081c-2.659,4.473-5.75,8.793-9.158,12.9c-2.519,3.035-6.123,5.761-7.58,9.274
		c-0.282,0.68-0.406,1.421-0.203,2.12c0.761,2.626,4.71,1.683,5.932,3.875c1.128,2.023-1.165,4.052-3.811,5.943
		c-2.177,1.557-9.758,6.582-17.112,11.058c-2.966,1.805-5.956,3.596-9.061,5.234c-2.145,1.132-4.167,2.051-6.584,2.737
		c-2.795,0.792-5.486,1.573-7.691,3.266c-2.448,1.88-4.475,4.093-6.723,6.129C22.248,108.923,17.374,112.761,15.187,112.761z
		 M45.323,75.522c1.942,0,3.091,0.401,3.586,1.534c1.348,3.084-5.74,5.501-7.948,6.759c-2.794,1.593-5.356,3.464-7.624,5.553
		c-1.135,1.045-2.196,2.144-3.177,3.29c-0.809,0.945-1.644,2.368-1.867,3.513c1.646,0.23,3.082-0.871,4.222-1.882
		c4.493-3.985,9.281-7.843,13.431-12.079c4.223-3.825,8.471-7.631,12.742-11.42c1.708-1.515,7.602-8.614,10.679-6.512
		c1.054,0.72,0.403,1.152,0.697,1.965c0.217,0.599-0.449,0.407,0.482,0.797c2.759,1.158,6.719-2.758,8.58-3.96
		c2.956-1.908,8.128-3.51,8.832-6.95c0.892-4.362-3.292-2.899-6.353-2.734c-1.753,0.095-4.072,0.153-4.791-1.493
		c-0.85-1.948,1.478-3.487,7.378-6.417c1.622-0.757,3.235-1.538,4.712-2.48c0.884-0.564,1.805-1.144,2.44-1.916
		c0.55-0.669,1.119-1.983,0.341-2.689c-0.227-0.206-0.57-0.298-0.905-0.325c-0.575-0.046-1.159,0.079-1.67,0.302
		c-0.891,0.389-1.618,1.076-2.309,1.672c-0.751,0.648-1.461,1.326-2.171,2.004c-1.632,1.556-3.174,3.176-4.853,4.698
		c-6.3,5.706-12.466,11.579-19.158,16.974c-0.754,0.608-1.587,1.237-2.627,1.368c-1.017,0.128-1.827-0.303-2.137-1.109
		c-0.297-0.772,0.501-1.563-0.193-2.291c-0.218-0.229-0.561-0.254-0.913-0.262c-0.769-0.018-1.505,0.282-2.138,0.615
		c-1.367,0.719-2.403,1.759-3.68,2.567c-2.571,1.628-5.147,3.25-7.735,4.86c-1.508,0.938-6.069,2.818-6.007,4.683
		c0.018,0.535,0.394,1.027,0.882,1.376c0.829,0.592,1.963,0.821,3.057,0.813C41.231,76.33,43.215,75.522,45.323,75.522z"/>
</g>
</svg>
