<?xml version="1.0" encoding="iso-8859-1"?>
<!-- Generator: Adobe Illustrator 28.3.0, SVG Export Plug-In . SVG Version: 6.00 Build 0)  -->
<svg version="1.1" id="Layer_1" xmlns="http://www.w3.org/2000/svg" xmlns:xlink="http://www.w3.org/1999/xlink" x="0px" y="0px"
	 width="128px" height="128px" viewBox="0 0 128 128" enable-background="new 0 0 128 128" xml:space="preserve">
<g>
	<rect x="16.157" y="67.779" width="0.275" height="0.275"/>
	<rect x="17.256" y="68.329" width="0.275" height="0.275"/>
	<polygon points="26.871,59.812 26.871,59.538 26.597,59.538 26.597,59.263 26.322,59.263 26.322,59.812 	"/>
	<rect x="14.509" y="66.131" width="0.275" height="0.275"/>
	<rect x="35.662" y="64.208" width="0.275" height="0.275"/>
	<rect x="15.333" y="66.955" width="0.275" height="0.549"/>
	<rect x="36.761" y="63.933" width="0.275" height="0.275"/>
	<rect x="27.146" y="58.713" width="0.275" height="0.275"/>
	<rect x="37.036" y="64.208" width="0.275" height="0.275"/>
	<rect x="15.882" y="67.505" width="0.275" height="0.275"/>
	<rect x="27.695" y="67.505" width="0.275" height="0.275"/>
	<rect x="16.981" y="59.538" width="0.275" height="0.549"/>
	<rect x="32.64" y="66.406" width="0.275" height="0.275"/>
	<rect x="60.388" y="68.329" width="0.275" height="0.275"/>
	<rect x="35.388" y="64.483" width="0.275" height="0.275"/>
	<rect x="28.52" y="66.68" width="0.275" height="0.275"/>
	<rect x="25.772" y="68.329" width="0.275" height="0.275"/>
	<rect x="27.97" y="67.779" width="0.275" height="0.275"/>
	<rect x="28.794" y="66.955" width="0.275" height="0.275"/>
	<rect x="19.728" y="68.054" width="0.275" height="0.275"/>
	<rect x="20.553" y="68.054" width="0.275" height="0.275"/>
	<rect x="22.476" y="68.054" width="0.275" height="0.275"/>
	<rect x="18.355" y="68.054" width="0.275" height="0.275"/>
	<rect x="23.575" y="67.505" width="0.275" height="0.275"/>
	<rect x="24.673" y="68.054" width="0.275" height="0.275"/>
	<rect x="23.849" y="67.779" width="0.275" height="0.275"/>
	<rect x="34.289" y="65.032" width="0.275" height="0.275"/>
	<rect x="13.959" y="65.032" width="0.275" height="0.275"/>
	<rect x="21.377" y="59.812" width="0.275" height="0.275"/>
	<rect x="19.179" y="59.263" width="0.275" height="0.275"/>
	<rect x="15.058" y="60.911" width="0.275" height="0.275"/>
	<rect x="35.937" y="62.56" width="0.275" height="0.275"/>
	<rect x="15.333" y="61.186" width="0.275" height="0.275"/>
	<rect x="25.772" y="59.538" width="0.275" height="0.275"/>
	<rect x="36.761" y="62.56" width="0.275" height="0.275"/>
	<rect x="14.509" y="62.01" width="0.275" height="0.275"/>
	<rect x="16.432" y="59.538" width="0.275" height="0.275"/>
	<rect x="39.234" y="64.208" width="0.275" height="0.549"/>
	<rect x="15.608" y="60.636" width="0.275" height="0.275"/>
	<rect x="17.256" y="59.263" width="0.275" height="0.275"/>
	<rect x="18.904" y="59.538" width="0.275" height="0.275"/>
	<rect x="21.926" y="59.538" width="0.275" height="0.275"/>
	<rect x="34.564" y="63.109" width="0.275" height="0.275"/>
	<rect x="37.311" y="62.56" width="0.275" height="0.275"/>
	<rect x="24.399" y="60.087" width="0.275" height="0.275"/>
	<rect x="24.948" y="60.087" width="0.275" height="0.275"/>
	<rect x="25.223" y="59.812" width="0.549" height="0.275"/>
	<rect x="33.465" y="63.384" width="0.275" height="0.275"/>
	<rect x="14.234" y="64.757" width="0.275" height="0.275"/>
	<rect x="23.849" y="59.812" width="0.275" height="0.549"/>
	<rect x="35.388" y="62.56" width="0.275" height="0.549"/>
	<rect x="22.201" y="59.812" width="0.275" height="0.275"/>
	<rect x="13.684" y="64.483" width="0.549" height="0.275"/>
	<rect x="21.926" y="60.087" width="0.275" height="0.275"/>
	<rect x="23.575" y="60.362" width="0.275" height="0.275"/>
	<rect x="37.586" y="62.834" width="0.275" height="0.275"/>
	<rect x="67.256" y="71.625" width="0.275" height="0.275"/>
	<rect x="78.245" y="71.076" width="0.275" height="0.275"/>
	<rect x="75.223" y="71.9" width="0.275" height="0.275"/>
	<rect x="77.97" y="70.801" width="0.275" height="0.275"/>
	<rect x="42.805" y="62.56" width="0.275" height="0.275"/>
	<rect x="74.673" y="71.9" width="0.275" height="0.275"/>
	<rect x="77.695" y="71.076" width="0.275" height="0.549"/>
	<polygon points="76.047,71.9 76.047,72.175 75.772,72.175 75.772,72.45 76.322,72.45 76.322,71.9 	"/>
	<rect x="67.531" y="71.9" width="0.275" height="0.275"/>
	<rect x="67.805" y="71.625" width="0.275" height="0.275"/>
	<rect x="73.025" y="71.625" width="0.275" height="0.275"/>
	<rect x="41.981" y="62.56" width="0.275" height="0.275"/>
	<rect x="68.63" y="71.625" width="0.275" height="0.275"/>
	<rect x="68.355" y="71.9" width="0.275" height="0.275"/>
	<rect x="76.597" y="71.9" width="0.275" height="0.549"/>
	<rect x="43.63" y="62.56" width="0.275" height="0.275"/>
	<rect x="89.509" y="69.977" width="0.275" height="0.275"/>
	<rect x="89.234" y="69.702" width="0.275" height="0.275"/>
	<rect x="93.355" y="69.977" width="0.275" height="0.549"/>
	<rect x="88.959" y="69.977" width="0.275" height="0.275"/>
	<rect x="91.432" y="69.702" width="0.275" height="0.275"/>
	<rect x="79.619" y="69.702" width="0.275" height="0.275"/>
	<rect x="78.52" y="70.527" width="0.275" height="0.275"/>
	<rect x="42.531" y="62.834" width="0.275" height="0.275"/>
	<rect x="79.344" y="69.977" width="0.275" height="0.275"/>
	<polygon points="85.113,69.702 84.838,69.702 84.838,69.977 84.564,69.977 84.564,70.252 85.113,70.252 	"/>
	<rect x="80.168" y="69.702" width="0.275" height="0.275"/>
	<rect x="87.86" y="69.702" width="0.275" height="0.549"/>
	<rect x="43.904" y="64.208" width="0.275" height="0.275"/>
	<rect x="47.476" y="64.483" width="0.275" height="0.275"/>
	<rect x="45.278" y="64.208" width="0.275" height="0.275"/>
	<rect x="48.849" y="64.757" width="0.275" height="0.549"/>
	<rect x="40.882" y="64.208" width="0.275" height="0.824"/>
	<rect x="39.234" y="62.834" width="0.275" height="0.275"/>
	<rect x="49.124" y="65.307" width="0.275" height="0.275"/>
	<rect x="43.08" y="64.208" width="0.275" height="0.275"/>
	<rect x="42.531" y="64.757" width="0.275" height="0.275"/>
	<rect x="41.432" y="64.757" width="0.275" height="0.275"/>
	<rect x="43.63" y="64.483" width="0.275" height="0.275"/>
	<rect x="38.684" y="62.56" width="0.275" height="0.275"/>
	<rect x="42.805" y="64.483" width="0.275" height="0.275"/>
	<rect x="42.256" y="62.285" width="0.275" height="0.275"/>
	<rect x="56.816" y="70.252" width="0.275" height="0.275"/>
	<rect x="63.135" y="71.9" width="0.275" height="0.275"/>
	<rect x="63.959" y="71.9" width="0.275" height="0.275"/>
	<rect x="61.212" y="69.977" width="0.275" height="0.275"/>
	<rect x="61.761" y="70.527" width="0.275" height="0.275"/>
	<rect x="64.509" y="71.9" width="0.275" height="0.275"/>
	<rect x="66.432" y="71.9" width="0.275" height="0.275"/>
	<rect x="59.289" y="69.702" width="0.275" height="0.275"/>
	<rect x="54.344" y="68.603" width="0.275" height="0.275"/>
	<polygon points="49.948,65.307 49.673,65.307 49.673,65.581 49.399,65.581 49.399,65.856 49.948,65.856 	"/>
	<rect x="54.619" y="68.878" width="0.275" height="0.275"/>
	<rect x="52.695" y="66.955" width="0.549" height="0.275"/>
	<rect x="55.992" y="70.252" width="0.275" height="0.275"/>
	<rect x="66.981" y="71.9" width="0.275" height="0.275"/>
	<rect x="91.706" y="63.658" width="0.275" height="0.275"/>
	<rect x="50.223" y="58.713" width="0.275" height="0.549"/>
	<rect x="51.597" y="59.538" width="0.275" height="0.275"/>
	<rect x="52.146" y="59.812" width="0.275" height="0.275"/>
	<rect x="47.75" y="58.164" width="0.275" height="0.275"/>
	<rect x="54.893" y="58.988" width="0.275" height="0.275"/>
	<rect x="44.728" y="57.889" width="0.275" height="0.275"/>
	<rect x="101.597" y="63.658" width="0.275" height="0.275"/>
	<rect x="54.619" y="61.735" width="0.275" height="0.275"/>
	<rect x="54.893" y="62.01" width="0.549" height="0.275"/>
	<rect x="54.344" y="60.911" width="0.275" height="0.275"/>
	<rect x="52.695" y="59.812" width="0.275" height="0.275"/>
	<rect x="31.816" y="59.263" width="0.275" height="0.275"/>
	<rect x="43.355" y="57.614" width="0.275" height="0.549"/>
	<rect x="32.64" y="58.988" width="0.275" height="0.275"/>
	<rect x="35.388" y="57.889" width="0.275" height="0.549"/>
	<rect x="55.168" y="60.087" width="0.275" height="0.275"/>
	<rect x="33.739" y="58.439" width="0.275" height="0.275"/>
	<rect x="32.915" y="58.713" width="0.549" height="0.275"/>
	<rect x="52.421" y="60.087" width="0.275" height="0.275"/>
	<rect x="36.487" y="58.164" width="0.275" height="0.275"/>
	<rect x="36.212" y="57.889" width="0.275" height="0.275"/>
	<rect x="38.684" y="57.889" width="0.275" height="0.275"/>
	<rect x="100.223" y="66.68" width="0.275" height="0.275"/>
	<path d="M54.893,62.285h-0.275V62.01h-0.275v0.275h-0.275V62.01h-0.275v-0.275h0.275v0.275h0.275v-0.824h-0.549v0.275H53.52v-0.275
		h0.275v-0.275H53.52v-0.275h-0.275v0.275H52.97v-0.549h-0.275v0.275h-0.275v0.275h-0.275v-0.275h0.275v-0.275h-0.275v-0.275h-0.549
		v0.275h-0.275v-0.275h0.275v-0.275h-0.275v-0.549h-0.275v0.275h-0.275v-0.275h-0.275v0.275h-0.275v-0.275h-0.824v-0.275h0.275
		v-0.275h-0.549v0.275h-0.275v-0.549h-0.275v0.275H48.3v-0.275h-0.275v0.275H47.75v-0.275h-0.275v0.275h-0.275v-0.549h-0.275v0.549
		h-0.275v-1.099h-0.275v1.099h-0.275v-0.549h-0.275v0.275h-0.275v-0.275h-0.549v0.275h-0.549v-0.275h-0.275v0.275h-0.275v-0.275
		H43.63v0.275h-0.275v-0.275H43.08v0.275h-0.275v-0.275h-0.824v0.275h0.275v0.275h-0.275v-0.275h-0.275v-0.275h-0.824v0.275h0.275
		v0.275h-0.275v0.275h-0.275v-0.275h0.275v-0.275h-0.275v-0.275h-0.275v0.275h-0.824v-0.275h-0.275v0.275h-0.549v-0.275H38.41v0.549
		H37.86v-0.549h-0.275v0.549h-0.275v-0.549h-0.275v0.275h-0.275v0.275h-0.275v-0.275h-0.275v0.275h-0.275v-0.275h-0.275v0.275
		h-0.824v-0.275h-0.275v0.549h-0.275v-0.275h-0.275v0.275h-0.275v0.275H33.19v0.275H32.64v-0.275h-0.275v0.275h-0.275v0.275h0.275
		v0.275h-0.275v-0.275h-0.275v0.549h-0.275v-0.275h-0.275v0.275h-0.549v-0.275h-0.275v0.275h-0.824v0.275h0.275v0.275h-0.275v-0.275
		h-0.549v-0.275h-0.275v0.549H28.52v-0.549h-0.275v0.824H27.97v0.275h-0.275v-0.549h-0.275v0.275h-0.275v0.275h0.275v0.275h-0.549
		v-0.549h-0.275v0.275h-0.275v0.275h0.275v0.275h-0.275v0.275h-0.275V62.01h-0.275v-0.275h-0.549v0.549h-0.275v0.275h-0.275V62.01
		h-0.275v0.275h-0.275v0.275h-0.549v-0.275H23.3V62.01h-0.275v0.275H22.75V62.01h-0.824v0.275h-0.275v0.275h-0.275v-0.275h-0.275
		V62.01h-0.275v-0.275h-0.275v0.275h-0.275v0.275h-0.275V62.01h-0.275v-0.549h-0.549v0.275h0.275v0.275h-0.275v-0.275h-0.275v0.275
		H18.63v0.275h-0.275V62.01H18.08v-0.275h-0.275v0.549h-0.549v0.275h0.275v0.275h-0.275V62.56h-0.275v-0.275h-0.275v0.549h0.275
		v0.275h-0.824v0.275h-0.275v0.275h0.549v-0.275h0.275v0.275h-0.275v0.275h0.549v0.275h-1.099v0.275h0.549v0.549h0.275v-0.275h0.275
		v0.275h-0.275v0.275h0.549v0.275h-0.275v0.275h0.275v0.275h0.275v-0.549h0.275v0.275h0.275v0.275h-0.549v0.275h0.824v-0.275h0.824
		v0.275h0.275v-0.275h0.824v0.275h0.275v-0.275h0.824v-0.275h0.275v0.275h0.275v-0.275h0.549v0.275h0.275v-0.275h0.275v0.549H23.3
		v-0.549h0.549v0.275h0.275v-0.275h0.549v0.549h0.549v-0.275h-0.275v-0.275h0.275v-0.275h0.275v0.275h-0.275v0.275h0.549v-0.824
		h0.275v0.549h0.824v-0.275h-0.275v-0.275h0.275v0.275h0.549v-0.275h-0.275v-0.275h0.275v0.275h0.549v-0.275h0.275v-0.275h0.275
		v0.275h0.549v-0.275h-0.275v-0.549h0.275v0.549h0.824v-0.275h0.275v-0.275h0.549v0.275h0.275v-0.275h0.275v-0.275h0.275v-0.549
		h0.275v-0.275h0.275v0.275h-0.275v0.549h0.275v-0.275h0.275v0.275h0.275v-0.824h0.275v0.275h0.549v-0.275H33.19v-0.275h0.275v0.275
		h1.099v-0.275h-0.275V62.56h0.275v0.275h0.549V62.56h-0.275v-0.275h-0.275V62.01h0.275v0.275h0.275v0.275h0.275V62.01h0.275v0.549
		h0.275v-0.275h0.275v0.275h0.275v-0.275h0.549v0.275h0.275V62.01h0.275v-0.275h0.275v0.275h-0.275v0.549h0.549v-0.275h0.275v0.275
		h0.275v-0.275h0.275V62.01h0.275v0.275h0.275V62.01h0.275v0.549h-0.275v0.275h0.549V62.01h0.275v0.275h0.275v0.549h0.275V62.01
		h-0.275v-0.275h0.275v0.275h0.275v0.275h0.275v0.275h-0.275v0.275h0.549v-0.549h0.549V62.01h0.275v0.275h0.549v0.275h0.275V62.01
		h0.275v0.275h0.275V62.01h0.549v0.549h0.275V62.01h0.275v0.549h0.275V62.01h0.275v0.549h0.549v-0.275h0.275V62.01h0.275v0.549
		h0.549v-0.275h0.549V62.01h0.275v0.275H48.3v0.275h-0.275v0.275h1.099v0.275h0.549v0.275h0.275v-0.275h0.275v0.275h-0.275v0.275
		h0.824v0.275h-0.275v0.275h0.549v-0.275h0.549v0.275h-0.275v0.549h0.275v-0.275h0.275v-0.275h0.275v0.275h0.275v-0.275h0.275v0.275
		h-0.275v0.275h0.275v0.275h0.549v-0.275h0.549v0.275h-0.549v0.275h0.275v0.275h0.275v-0.275h0.275v0.275h-0.275v0.275h0.549v0.275
		h0.549v0.275h0.275v-0.275h0.275v0.275h-0.275v0.549h0.275v0.275h0.275V66.68h0.275v0.549h0.275v0.275h0.275v0.549h0.275v-0.549
		h0.275v0.549h0.549v-0.275h0.549v0.549h0.275v-0.549h0.275v-0.275h0.275v0.275h-0.275v0.275h0.275v0.549h0.275v-0.824h0.275v0.549
		h0.275v-0.824h0.275v0.824h0.275v-0.549h0.549v-0.275h0.275v0.275h-0.275v0.275h-0.275v0.275h0.549v-0.275h0.275v0.275h0.549
		v-0.275h0.275v0.275h0.275v0.275h0.275v0.549h1.374v0.275h-0.549v0.275h1.099v-0.275h-0.275v-0.275h0.275v0.275h0.275v-0.275h0.275
		v0.275h-0.275v0.275h0.549v0.275h0.275v-0.275h0.549v0.275h0.275v-0.275h0.275v0.275h0.275v-0.275h0.549v0.275h0.275v-0.549h0.275
		v0.275h0.549v-0.275h0.275v0.275h-0.275v0.275h0.549v-0.275h0.824v-0.275h0.275v-0.275h0.275v0.824h0.275v-0.275h0.824v0.275h0.275
		v-0.275h0.824v0.549H73.3v-0.275h0.275v-0.275H73.3v-0.275h0.275v0.275h0.275v0.275h0.275v-0.275h0.275v0.549h0.275v-0.549h0.275
		v0.275h0.275v-0.824h0.275v1.099h0.275v-0.824h0.549v-0.275h0.549v0.275h0.275v-0.275h0.549v-0.275h0.275v-0.275h-0.275v-0.275
		h-0.275v0.275h-0.549v-0.275h0.549v-0.275h0.275v0.275h0.275v0.275h0.549v-0.275h0.549v-0.275h-0.275v-0.275H78.52v-0.275h0.275
		v0.275h0.275v0.275h0.275v-0.275h0.275v-0.275h0.275v0.275h0.275v0.549h0.275v-0.549h0.275v0.275h0.275v-0.275h0.275v-0.275h0.275
		v0.275h0.275v-0.275h0.275v0.275h-0.275v0.275h0.549v-0.275h0.549v-0.275h0.549v0.275h0.549v0.275h0.275v-0.275h0.824v0.275h0.275
		v0.275h0.275v-0.549h0.275v-0.275h-0.275V67.23h0.275v0.275h0.275v0.549h1.648v-0.549h0.549v0.275h-0.275v0.275h0.549v0.275h0.275
		v-0.549h-0.275v-0.275h0.275v0.275h0.275v-0.275h0.275v0.275h-0.275v0.275h0.275v0.275h0.275v-0.549h0.549v0.275h0.275v-0.549
		h0.275v0.275h0.275v0.549h0.275v-0.275h0.275v-0.275h0.549v0.549h0.275v-0.549h0.275v-0.275h0.275v0.549h0.275v-0.275h0.549v0.275
		h0.275v-0.275h0.275v0.275h0.275v-0.275h0.275v0.549h0.275v-0.549h0.275v0.549h0.275v-0.549h0.275v0.275h0.275v0.549h0.275v-0.824
		h-0.275v-0.275h0.275v0.275h0.275v0.549h0.275v-0.824h0.275v0.549h0.275v-0.275h0.275v0.275H98.3v-0.549h0.275v0.275h0.275v-0.275
		h0.549v0.549h0.275v-0.549h0.275v0.275h0.549v-0.275h0.275v0.275h0.549v-0.275h0.275v0.549h0.824v-0.275h0.275v-0.275h0.275v0.549
		h0.549v-0.549h0.275v0.549h0.275v0.549h0.275v-0.275h0.549v0.275h0.549v0.275h0.275v-0.275h0.275v0.549h1.099v-0.549h0.275v0.549
		h0.275v0.275h0.549v-0.275h-0.275v-0.275h-0.275v-0.275h0.275v0.275h0.549v-0.275h0.275v-0.549h0.549v-0.275h0.275v-0.275h-0.549
		V67.23h0.824v-0.275h-0.824v-0.549h-0.275v-0.275h0.549v-0.275h-1.099v-0.549h-0.275v0.275h-0.275v-0.549h-0.549v0.275h-0.275
		v-0.549h-0.275v0.275h-0.275v-0.275h-0.275v0.275h-0.275v0.275h-0.275v-0.275h0.275v-0.275h-0.275v-0.275h-0.275v-0.275h-1.099
		v-0.275h-0.275v0.275h-0.275v-0.549h-0.275v0.275h-0.549v0.275h-0.275v-0.275h0.275v-0.275h-0.549v0.275h-0.275v0.275h0.275v0.275
		h-0.275v-0.275h-0.275v-0.275h-0.275v0.275h-0.275v-0.549h-0.549v0.275h0.275v0.275h-0.275v-0.275h-0.275v0.275h-0.275v-0.549
		h-0.275v0.275h-0.275v0.275h-0.275v-0.275h0.275v-0.275h-0.549v0.275h-0.275v0.275H98.3v-0.275h-0.275v0.275H97.75v-0.549h-0.275
		v0.275h-0.549v-0.275h-0.275v0.275h-0.549v-0.275h-0.549v0.275h0.275v0.275h0.275v0.275h-0.275v-0.275h-0.275v-0.275h-0.275v0.275
		h-0.275v-0.275h-0.275v0.275h-0.275v-0.275h-0.275v0.275h-0.275v-0.275H93.63v0.275h-0.275v-0.275h0.275v-0.275H93.08v0.275h-0.275
		v-0.275h-0.549v0.275h-0.275v0.275h0.275v0.275h-0.275v-0.275h-0.275v-0.275h-0.275v0.275h-0.275v-0.275h0.275v-0.275h-0.824v0.275
		h0.275v0.275h-0.275v-0.275h-0.549v0.275h-0.549v-0.275h0.275v-0.275h-0.549v0.275h-0.275v-0.275h-0.275v0.275H88.41v-0.275h-0.275
		v0.275H87.86v-0.275h-0.275v0.275h-0.275v-0.275h-0.275v0.275h-0.275v0.275h-0.549v-0.275h0.275v-0.275h-0.549v0.549h-0.275v-0.549
		h-0.275v0.275h-0.275v0.275h-0.549v-0.549h-0.275v0.275h-0.275v0.275h-0.275v-0.275h-0.275v0.275h-0.549v-0.275h0.275v-0.275H82.64
		v0.275h-0.275v-0.275h-0.275v0.275h-0.275v-0.275h-0.275v0.275h-0.275v-0.275h-0.275v0.275h-0.275v-0.549h-0.275v0.275h-0.275
		v0.275h0.275v0.549h-0.275v-0.549h-0.275v-0.275h-0.275v0.275h-0.275v0.275h0.275v0.275h-0.275v0.275h-0.275v-0.275h-0.275v-0.275
		h0.275v-0.275H78.52v0.824h-0.275v-0.275H77.97v0.275h-1.099v0.275h0.549v0.275h-0.824v0.275h-0.275v-0.275h-0.275v0.275h-0.275
		v-0.275h-0.275v0.275h-0.275v0.275h0.275v0.275h-0.275v-0.275h-0.275v-0.275h-0.275v0.549h-0.275v0.275h-0.275v-0.549h0.275v-0.275
		h-0.824v0.275h0.275v0.275h-0.275v0.275H73.3v-0.275h0.275v-0.275H73.3v-0.549h-0.275v0.824H72.75v-0.824h-0.275v0.824h-0.275
		v-0.549h-0.275v0.549h-0.549v-0.275h-0.549v-0.549h-0.549v0.275h0.275v0.275h-0.549v-0.275h-0.275v0.275H68.63v0.549h-0.275v-0.275
		H68.08v-0.275h-0.549v-0.275h-0.275v0.275h-0.824v0.275h-0.275v0.275h-0.275v-0.275h0.275v-0.275h-0.549v-0.275h-0.275v0.275
		h-0.549v-0.549h-0.275v0.275h-0.275v-0.549h-0.275v0.275H63.41v-0.275h0.275v-0.275h-1.099v-0.275h-0.275v0.275h-0.275v-0.549
		h-1.099v-0.275h-0.549v0.275h0.275v0.275h0.275v0.275h-0.275v-0.275h-0.275v-0.275h-0.549v-0.549h-0.549v0.275h-0.275v0.275h-0.275
		v-0.275h-0.275v0.275H58.19v-0.549h-0.275v0.275H57.64v-0.275h-0.275v-0.275h-0.275v0.275h-0.549v-0.824h-0.275v0.275h-0.824
		v-0.275h0.275V62.56h-0.824V62.285z M54.619,62.834h0.275v0.275h-0.275V62.834z M50.498,59.812h0.275v0.275h-0.275V59.812z
		 M48.849,59.263h0.275v0.275h-0.275V59.263z M48.025,58.988H48.3v0.275h-0.275V58.988z M45.278,58.713h0.275v0.275h-0.275V58.713z
		 M44.728,58.713h0.275v0.275h-0.275V58.713z M44.179,58.713h0.275v0.275h-0.275V58.713z M43.63,58.713h0.275v0.275H43.63V58.713z
		 M43.08,58.713h0.275v0.275H43.08V58.713z M42.531,58.713h0.275v0.275h-0.275V58.713z M41.432,58.713h0.275v0.275h-0.275V58.713z
		 M39.509,58.713h0.275v0.275h-0.275V58.713z M34.838,58.988h0.275v0.275h-0.275V58.988z M33.465,59.538h0.549v0.275h-0.549V59.538z
		 M32.64,59.812h0.275v0.275H32.64V59.812z M30.443,60.636h0.275v0.275h-0.275V60.636z M29.069,60.911h0.275v0.275h-0.275V60.911z
		 M28.52,61.186h0.275v0.275H28.52V61.186z M26.871,62.01h0.275v0.275h-0.275V62.01z M22.75,62.56h0.275v0.275H22.75V62.56z
		 M22.201,62.56h0.275v0.275h-0.275V62.56z M20.553,62.285h0.275v0.275h-0.275V62.285z M19.454,65.856h-0.275v-0.275h0.275V65.856z
		 M21.377,65.581h-0.549v-0.275h0.549V65.581z M22.201,65.581h-0.275v-0.275h0.275V65.581z M23.3,65.581h-0.275v-0.275H23.3V65.581z
		 M23.849,65.581h-0.275v-0.275h0.275V65.581z M27.97,64.757h-0.549v-0.275h0.549V64.757z M28.52,64.483h-0.275v-0.275h0.275V64.483
		z M29.619,64.483h-0.275v-0.275h0.275V64.483z M29.619,63.933h-0.275v-0.275h0.275V63.933z M30.168,63.933h-0.275v-0.275h0.275
		V63.933z M34.014,62.834h-0.275V62.56h0.275V62.834z M36.212,62.01h-0.275v-0.275h0.275V62.01z M36.761,62.01h-0.275v-0.275h0.275
		V62.01z M38.41,62.01h-0.275v-0.275h0.275V62.01z M41.981,62.01h-0.275v-0.275h0.275V62.01z M45.003,61.735h-0.275v-0.275h0.275
		V61.735z M48.849,62.56h-0.275v-0.275h0.275V62.56z M49.399,62.56h-0.275v-0.275h0.275V62.56z M49.948,62.56h-0.275v-0.275h0.275
		V62.56z M50.772,63.109h-0.275v-0.275h0.275V63.109z M55.168,65.856h-0.275v-0.275h-0.275v-0.275h0.275v0.275h0.275V65.856z
		 M56.816,67.23h-0.275v-0.275h0.275V67.23z M63.41,68.878h-0.275v-0.275h0.275V68.878z M64.234,68.878h-0.275v-0.275h0.275V68.878z
		 M65.882,69.428h-0.275v-0.275h0.275V69.428z M66.432,69.428h-0.275v-0.275h0.275V69.428z M70.003,69.428h-0.275v-0.275h0.275
		V69.428z M71.377,69.428h-0.275v-0.275h0.275V69.428z M72.201,69.428h-0.275v-0.275h0.275V69.428z M73.025,69.428h-0.549v-0.275
		h0.549V69.428z M74.124,69.428h-0.275v-0.275h0.275V69.428z M76.597,68.878h-0.275v-0.275h0.275V68.878z M80.717,67.505h-0.549
		V67.23h0.549V67.505z M84.289,67.505h-0.275V67.23h0.275V67.505z M85.388,67.505h-0.275V67.23h0.275V67.505z M86.761,67.505h-0.275
		V67.23h0.275V67.505z M87.311,67.779h-0.275v-0.275h0.275V67.779z M91.432,67.505h-0.275V67.23h0.275V67.505z M93.904,67.505H93.63
		V67.23h0.275V67.505z M94.728,67.505h-0.275V67.23h0.275V67.505z M95.278,67.505h-0.275V67.23h0.275V67.505z M102.146,67.779
		h-0.275v-0.275h0.275V67.779z M104.619,68.054h-0.275v-0.275h0.275V68.054z M105.168,68.054h-0.275v-0.275h0.275V68.054z
		 M105.717,68.329h-0.275v-0.275h0.275V68.329z M106.542,68.878h-0.275v-0.275h0.275V68.878z M107.091,65.581h0.275v0.275h-0.275
		V65.581z M104.344,64.483h0.275v0.275h0.275v0.275h-0.275v-0.275h-0.275V64.483z M102.97,64.208h0.275v0.275h-0.275V64.208z
		 M96.926,64.208h0.275v0.275h-0.275V64.208z M96.377,64.208h0.275v0.275h-0.275V64.208z M92.531,64.208h0.275v0.275h-0.275V64.208z
		 M88.684,64.208h0.275v0.275h-0.275V64.208z M88.135,64.208h0.275v0.275h-0.275V64.208z M87.586,64.208h0.275v0.275h-0.275V64.208z
		 M87.036,64.208h0.275v0.275h-0.275V64.208z M82.366,64.208h0.275v0.275h-0.275V64.208z M81.816,64.208h0.275v0.275h-0.275V64.208z
		 M81.267,64.208h0.275v0.275h-0.275V64.208z M80.717,64.208h0.275v0.275h-0.275V64.208z M77.97,65.032h0.275v0.275H77.97V65.032z
		 M76.597,65.856h0.275v0.275h-0.275V65.856z M75.772,65.856h0.549v0.275h-0.549V65.856z M70.827,66.131h0.275v0.275h-0.275V66.131z
		 M69.454,66.131h0.275v0.275h-0.275V66.131z M66.706,66.131h0.275v0.275h-0.275V66.131z M65.333,66.131h0.275v0.275h-0.275V66.131z
		 M64.783,66.131h0.275v0.275h-0.275V66.131z M63.959,65.856h0.275v0.275h-0.275V65.856z M63.41,65.581h0.275v0.275H63.41V65.581z
		 M62.586,65.032h0.275v0.275h0.275v0.275H62.86v-0.275h-0.275V65.032z M61.487,64.483h0.275v0.275h-0.275V64.483z M57.366,64.208
		h0.275v0.275h-0.275V64.208z M56.816,63.933h0.275v0.275h-0.275V63.933z M56.542,63.933v0.275h-0.275v-0.275H56.542z
		 M55.992,63.384h0.275v0.275h-0.275V63.384z M55.168,63.658v-0.275h0.275v0.275H55.168v0.275h0.275v0.275h0.549v0.275h0.824v0.275
		h1.923v0.275h0.275v-0.275h0.275v0.275h0.549v-0.275h0.275v0.275h0.824v0.275h0.824v0.275h0.275v-0.275h0.275v0.549h0.824v0.275
		h0.275v0.275h1.099v0.275h0.275v0.275h0.275V66.68h0.275v0.275h0.549V66.68h0.275v0.275h0.549V66.68h0.275v0.275h0.549v-0.549
		h0.275v0.549h0.549V66.68h0.275v0.275h0.549V66.68h0.275v0.275h0.275V66.68h0.275v0.275h0.275v-0.549h0.275v0.275h0.275v0.275
		h1.374v-0.549h0.275v0.549H73.3V66.68h0.275v0.275h0.275V66.68h0.275v0.275h0.549V66.68h0.275v0.275h0.275V66.68h0.275v-0.275
		h0.275v0.275h0.549v-0.275h0.824v-0.275h0.275v-0.275h0.549v-0.275h0.549v-0.275h0.824v-0.275h1.099v-0.275h0.275v0.275h0.275
		v-0.275h0.275v0.275h0.275v-0.275h0.824v0.275h0.275v-0.275h0.275v0.275h0.275v-0.275h0.824v0.275h0.275v-0.275h0.275v0.275h0.275
		v-0.275h0.275v0.275h0.275v-0.275h0.824v0.275h0.275v-0.275h0.275v0.275h0.275v-0.275h0.824v0.275h0.275v-0.275h0.275v0.275h0.275
		v-0.275h0.275v0.275h0.275v-0.275h0.824v0.275h0.275v-0.275h0.275v0.275h0.275v-0.275h0.824v0.275h0.275v-0.275h0.275v0.275h0.275
		v-0.275h0.824v0.275h0.275v-0.275h0.549v0.275h0.275v-0.275h0.275v0.275h0.275v-0.275h0.549v0.275h0.549v-0.275h0.275v0.275h0.275
		v-0.275h0.549v0.275h0.275v-0.275h0.275v-0.275h0.275v0.275H97.75v0.275h0.824v-0.275h0.549v0.275h0.275v-0.275h0.275v0.275h0.275
		v-0.275h1.099v0.275h0.275v-0.275h0.275v0.275h0.275v-0.275h0.549v0.275h0.549v-0.275h0.275v0.275h0.549v-0.275h0.275v0.275h-0.275
		v0.275h1.099v0.275h0.549v0.275h0.275v-0.275h0.275v-0.275h0.275v0.275h-0.275v0.275h0.824v0.275h0.549v0.275h0.549v0.275h0.275
		v-0.275h0.275v0.275h-0.275v0.549h0.275v-0.275h0.275v0.275h-0.275v0.549h-0.275v0.275h-0.275v0.275h-0.549v-0.275h-1.374v-0.549
		h-0.549V67.23h-0.275v0.275h-0.275V67.23h-0.549v-0.275h-1.648V66.68h-0.275v0.275h-0.549V66.68h-0.275v0.275h-0.549V66.68h-0.275
		v0.275h-0.275v0.275h-0.275v-0.275h-0.275V66.68h-0.275v0.275h-0.549V66.68h-0.275v0.275H98.3V66.68h-0.275v0.275H97.75V66.68
		h-0.275v0.275h-0.275v0.275h-0.275v-0.275h-1.099v0.275h-0.275v-0.275h-3.297v0.275h-0.275v0.275h-0.275V67.23h0.275v-0.275h-4.396
		V66.68h-0.275v0.275h-1.648V66.68h-0.275v0.275h-0.275V66.68h-0.549v0.275h0.275v0.275h-0.275v-0.275h-0.549V66.68h-0.275v0.275
		H83.19V66.68h-0.275v0.275h-0.549V66.68h-0.275v0.275h-0.824V66.68h-0.275v0.275h-0.275V66.68h-0.275v0.275h-1.374v0.275h-0.824
		v0.275h-0.549v0.275h-0.549v0.275h-0.549v0.275h-0.549v0.275h-1.099v0.549h-0.275v-0.275h-0.275v-0.275h-0.275v0.275h-0.549v-0.275
		H73.3v0.275h-0.275v-0.275h-0.549v0.275h-0.275v-0.275h-0.549v0.275h-0.275v-0.275h-0.549v0.275h-0.275v-0.275h-0.275v0.275h-0.275
		v-0.275h-0.549v0.275h-0.275v-0.275H68.63v0.275h0.275v0.275H68.63v-0.275h-0.275v0.275H68.08v-0.275h0.275v-0.275h-0.549v0.275
		h-0.275v-0.275h-0.549v0.275h0.275v0.275h-0.275v-0.275h-0.824v-0.275h-0.275v0.275h-0.275v-0.275h-1.099v-0.275h-0.549v-0.275
		h-0.824v0.275H62.86v-0.275h0.275v-0.275H62.86v-0.275h-0.824V67.23h-0.275v0.275h-0.275v-0.549h-1.648v0.275h-0.275v-0.275H58.19
		v0.549h-0.275V66.68H57.64v0.275h-0.275v0.275h0.275v0.275h-0.275V67.23h-0.275v-0.275h0.275V66.68h-0.824v-0.549h-0.275v0.275
		h-0.275v-0.549h-0.275v-0.275h-0.275v-0.275h-0.275v-0.275h-0.275v-0.275h-0.549v0.275h-0.275v-0.275h0.275v-0.275h-0.275v-0.275
		h-0.824v-0.275H52.97v-0.275h-0.824v-0.275h-0.549v0.275h-0.275v-0.275h0.275v-0.275h-0.549V62.56h-0.549v-0.275h-0.275V62.01
		h-1.099v-0.275h-0.275v-0.275h-0.275v0.275H48.3v-0.275H47.75v-0.275h-0.275v0.275h-0.275v0.549h-0.275v-0.549h0.275v-0.275h-0.549
		v0.275h-0.275v0.275h-0.275v0.275h-0.275v-0.275h0.275v-0.275h0.275v-0.275h-1.923v0.275h-0.275v-0.275h-0.275v0.275h-0.549v-0.275
		h-0.549v0.275h0.275v0.275h-0.275v-0.275h-0.549v-0.275h-0.275v0.275h-0.275v-0.275h-0.275v0.275h-0.549v-0.275h-0.275v0.275
		h-0.549v-0.275h-0.275v0.275h-0.549v-0.275h-0.275v0.275h-0.824v-0.275H37.86v0.275h-0.549v-0.275h-0.275v0.275h-0.275v-0.275
		h-0.275v0.275h-0.275v-0.275h-0.275v0.275h-1.099v0.275h-0.824v0.275h-0.549v0.275H33.19v0.275h-0.275v-0.275H32.64v0.275h-0.275
		v0.275h-0.275V62.56h-0.275v0.275h-0.275v0.275h-0.549v0.275h-0.275v0.275h-0.275v-0.275h0.275v-0.275h-0.549v0.275h-1.099v0.275
		H28.52v0.275h-0.824v0.275h-0.549v0.275h-0.549v0.275h-0.549v0.275h-1.374v0.275h-0.549v-0.275h-0.549v-0.275H23.3v0.275h-0.824
		v-0.275h-0.275v0.275h-0.824v-0.275h-0.275v0.275h-0.549v0.275h-0.275v0.275h0.275v0.275h-0.275v-0.275h-0.275v-0.275h0.275v-0.275
		h-0.549v0.275h-1.923v-0.275h-0.275v-0.824h-0.275v-0.549h0.275v-0.549h0.549v-0.275h-0.275V62.56h0.275v0.275h0.549V62.56h0.275
		v0.275h0.824V62.56h0.275v0.275h0.549v0.275h1.099v-0.275h0.275v0.275h0.275v0.275h0.275v-0.275h0.549v0.275H23.3v-0.275h0.549
		v0.275h0.275v-0.275h0.275v0.275h0.275v-0.275h0.275v-0.275h0.275v0.275h0.549v-0.275h0.275v0.275h0.275V62.56h0.275v0.275h0.275
		V62.56h0.824V62.01h0.275v0.275h0.275V62.01h0.549v-0.275h0.549v-0.275h0.549v-0.275h1.374v-0.275h0.549v0.275h0.275v-0.549h1.099
		v-0.275h0.549v-0.275h0.549v-0.275h0.824v-0.275h0.275v-0.275h0.275v0.275h0.275v-0.275h0.275v0.275h0.549v-0.275h0.275v0.275
		h0.275v-0.275h1.099v0.275h0.275v-0.275h0.549v0.275h0.275v-0.275h0.549v0.275h0.275v-0.275h0.275v0.275h0.275v-0.275h0.549v0.275
		h0.275v-0.275h0.549v0.275h0.275v-0.275h0.275v0.275h0.275v-0.275h0.549v0.275h0.275v-0.275h0.275v0.275h0.275v-0.275h0.275v0.275
		h0.275v-0.275h0.549v0.275h0.275v-0.275h0.275v0.275h0.275v-0.275h0.275v0.275h0.275v-0.275h0.275v0.275h0.275v-0.275h0.275v0.275
		H48.3v0.275h1.099v0.275h0.275v-0.275h0.275v0.275h-0.275v0.275h1.099v0.275h0.275v0.275h0.275v-0.275h0.275v0.549h0.824v0.275
		h0.275v0.275h0.549v0.549h0.275v0.275h0.275v0.275h0.275V62.56h0.275v0.275h-0.275v0.275h0.275v0.275h0.275v0.275H55.168z"/>
	<rect x="37.036" y="57.614" width="0.275" height="0.275"/>
	<rect x="37.311" y="57.889" width="0.275" height="0.275"/>
	<rect x="38.135" y="57.889" width="0.275" height="0.275"/>
	<rect x="53.52" y="60.362" width="0.275" height="0.275"/>
	<rect x="93.904" y="63.658" width="0.275" height="0.275"/>
	<rect x="81.267" y="67.779" width="0.275" height="0.275"/>
	<rect x="94.454" y="63.658" width="0.275" height="0.275"/>
	<rect x="98.849" y="67.779" width="0.275" height="0.275"/>
	<rect x="93.355" y="68.054" width="0.549" height="0.275"/>
	<polygon points="95.553,69.977 95.278,69.977 95.278,69.702 95.003,69.702 95.003,70.252 95.553,70.252 	"/>
	<rect x="94.179" y="68.054" width="0.275" height="0.275"/>
	<rect x="26.047" y="61.735" width="0.275" height="0.275"/>
	<rect x="107.915" y="62.01" width="0.275" height="0.275"/>
	<rect x="68.904" y="62.01" width="0.275" height="0.275"/>
	<rect x="95.003" y="63.658" width="0.275" height="0.275"/>
	<rect x="106.267" y="64.483" width="0.275" height="0.275"/>
	<rect x="105.717" y="64.483" width="0.275" height="0.275"/>
	<path d="M112.86,66.406v-0.549h-0.275v-0.824h-0.275v-0.549h-0.275v-0.549h-0.549v-0.549h-0.549v0.275h-0.275v-0.275h0.275v-0.275
		h-0.549V62.56h-1.648v-0.275h-0.549v0.275h-0.275v-0.275h-0.275v0.275h-0.275v-0.275h0.275V62.01h-0.275v-0.275h-0.275v-0.275
		h-0.549v-0.275h-0.275v-0.275h-0.275v-0.275h-0.275v-0.275h-0.824v-0.275h-0.549v0.275h-0.275v-0.275h-0.824v0.275h-0.824v0.275
		h0.275v0.275h-0.549v-0.549h-0.549v0.549h-0.275v-0.275h-0.549v-0.275h-0.549v0.275h-0.275v0.275h-0.549v-0.275h0.549v-0.275
		h-1.374v0.275H98.3v0.275h-0.275v0.275H97.75v-0.275h0.275v-0.275H98.3v-0.275h-1.099v0.549h-0.275v-0.549h-0.275v0.275h-0.275
		v-0.275h-0.549v0.275h0.275v0.275h-0.275v-0.275h-0.275v-0.275h-0.275v0.275h-0.275v-0.275h-0.275v0.275h-0.275v-0.275h-1.099
		v0.275h0.275v0.275h-0.275v-0.275H93.08v-0.275h-0.549v0.275h-0.275v-0.275h-0.275v0.275h-0.275v-0.275h-0.824v0.275h-0.275v-0.275
		h-0.275v0.275h-0.275v-0.275h-0.824v0.275h-0.275v-0.275h-1.374v0.275h-0.275v-0.275h-0.549v0.275h-0.275v-0.275h-0.275v0.275
		h-0.275v-0.275h-0.824v0.549h-0.275v-0.549h-0.275v0.275h-0.275v0.275h-0.275v-0.275h0.275v-0.275h-0.824v0.275H83.19v-0.275H82.64
		v0.275h-0.549v-0.275h-0.275v0.275h-0.549v-0.275h-0.824v0.275h-0.275v-0.275h-0.824v-0.275h-0.549v0.275H78.52v-0.275h-0.824
		v0.275h-0.275v0.275h-0.549v0.275h-0.275v0.549h-0.275v0.275h-0.275v0.275h-0.275v0.275h-0.549v0.275h-0.549v0.275h-0.275v0.275
		h-0.275v-0.275h0.275V62.56h-1.374v-0.275H72.75v0.275h-0.549v-0.275h-0.824v0.275h-0.275v-0.275h-0.275v0.275h-0.275v-0.275
		h-0.824v0.275h-0.275v-0.275h-0.275v0.275h-0.275v-0.275h-0.549v0.275H68.08v-0.275h-0.275v0.275h-1.374v0.275h-0.275V62.56h-1.099
		V62.01h-0.549v-0.549h-0.275v-0.275h-0.549v0.275H63.41v-0.275h0.275v-0.549H63.41v-0.275h-0.275v-0.275h-1.923v0.275h-1.374v0.275
		h0.275v0.275h-0.275v-0.275h-1.099v0.275h0.275v0.275h-0.275v-0.275H58.19v-0.275h-0.275v0.275H57.64v-0.549h-0.549v-0.549h-0.275
		v-0.275h-0.275v-0.275h-0.275v-0.275h-0.275v0.275h-0.275v-0.275h-0.275v0.275h-0.275v0.275h0.275v0.275h0.549v0.275h-0.275v0.275
		h0.275v0.549h0.275v-0.275h0.275v0.275h0.275v-0.275h0.275v0.275h-0.275v0.549h0.275v-0.275h0.275v0.275h-0.275v0.275h0.549v-0.275
		h0.275v-0.275h0.275v0.275h-0.275v0.275h0.275v0.275h0.275v-0.275h0.275v-0.275h0.275v0.549h0.275v-0.275h0.549v-0.275h-0.275
		v-0.275h0.275v0.275h0.549v0.275h0.275v-0.549h0.275v0.275h0.275v-0.275h0.275v-0.275h0.275v-0.275h-0.275v-0.275h0.275v0.275
		h0.275v-0.275h0.275v0.275h-0.275v0.275h-0.275v0.275h-0.275v0.275h0.549v-0.275h0.275v0.275h0.824v0.549h0.549v0.275h0.275v0.549
		h0.275v0.275h0.275v-0.275h0.275v0.824h0.824v-0.275h0.275v0.549h0.275v-0.549h0.275v0.824h0.275v-1.099h0.275v0.824h0.549v-0.549
		h-0.275v-0.275h0.275v0.275h0.275v0.275h0.275v-0.549h0.275v0.549h0.275v-0.275h0.275v-0.275H68.63v-0.275h0.275v0.275h0.275v0.275
		h0.275v-0.275h0.275v0.275h0.549v0.275h0.549v-0.275h-0.275v-0.275h-0.549v-0.275h0.549v0.275h0.549v0.549h0.275v-0.275h0.275
		v0.275h0.275v-0.549h0.275v0.549h0.549v-0.275h0.275v-0.275H73.3v0.275h-0.275v0.275h0.824v0.275h0.275v-0.549h0.549v0.275h0.549
		v-0.275h0.275v-0.275h-0.275v-0.275h0.275V62.56h0.275v0.275h-0.275v0.275h0.275v0.275h0.549v-0.275h-0.275v-0.275h0.275V62.56
		h0.275v0.549h0.275v-0.824h0.275V62.01h-0.275v-0.275h0.275v-0.275h0.275v0.275h0.549v-0.275h-0.275v-0.275h-0.275v-0.275h0.275
		v-0.275h0.275v0.275h-0.275v0.275h0.275v0.275h0.824v-0.549H78.52v-0.275h0.275v0.275h0.275v0.549h0.824v-0.275h0.275v0.549h0.275
		v-0.275h1.374v0.275h0.275v-0.275h0.549v-0.549h0.275v0.549H82.64v0.275h0.549v-0.275h0.275v-0.549h0.275v0.549h0.824v-0.275h0.275
		v0.275h-0.275v0.275h0.275v0.275h0.275v-0.824h0.275v0.275h0.275v0.549h0.275v-0.549h0.549v-0.549h0.275v0.549h-0.275v0.275h0.549
		v-0.275h0.275v-0.275h-0.275v-0.275h0.275v0.275h0.275v0.275h0.549v0.275h0.275v-0.549h0.275v0.275h0.275v-0.275h0.275v0.275h0.549
		v-0.275h0.275v0.275h-0.275v0.275h0.549v-0.275h0.275v-0.275h-0.275v-0.275h0.275v0.275h0.275v0.275h0.824v0.275h0.275v-0.275
		h0.549v-0.549h0.275v0.824h0.275v-0.275h0.275v-0.275h0.275v0.275h0.824v-0.275h0.275v-0.275h0.275v0.549h1.099v-0.275h0.275v0.275
		h0.275v0.275h0.549v-0.275h-0.275v-0.275h0.275v0.275h0.549v0.275h0.275v-0.275H98.3v-0.275h0.275v0.275h0.275v0.275h0.549v-0.549
		h0.275v0.275h0.275v0.275h0.275v-0.275h0.549v0.275h0.275v-0.275h0.275v-0.275h0.275v0.275h0.549v0.275h0.549v-0.549h0.275v0.275
		h0.549v-0.275h-0.275v-0.275h0.275v0.275h0.275v-0.275h0.275v0.275h-0.275v0.275h0.549v-0.275h0.549v0.275h0.549v0.275h0.275
		v-0.275h0.275v0.275h-0.275v0.275h0.275v0.275h0.275V62.01h0.275v0.824h0.549v0.275h0.824v0.549h0.275v-0.549h0.549v0.275h-0.275
		v0.275h0.549v-0.275h0.549v0.275h-0.275v0.275h0.549v-0.275h0.275v0.549h0.275v-0.275h0.275v0.275h0.549v0.275h-0.275v0.275h0.275
		v0.275h0.275v0.275h0.275v0.549h-0.275v0.275h0.275v0.275h0.275v0.275h-0.824v0.275h0.549v1.099h0.275v0.275h-0.275v0.275h-0.275
		v0.549h0.275v0.549h-0.275v-0.275h-0.275v0.275h-0.275v0.275h0.549v0.275h-0.275v0.275h0.275v0.275h-0.275v-0.275h-0.275v-0.275
		h-0.275v0.275h-0.275v0.275h0.549v0.275h-0.275v0.275h0.275v0.275h-0.275v-0.275h-0.549V71.9h-0.824v0.549h0.275v-0.275h0.275
		v0.275h-0.275v0.275h-0.549v0.275h-0.549v0.275h-0.275v0.275h-0.275v-0.275h-0.275v-0.275h0.275v0.275h0.275v-0.275h0.275v-0.275
		h-1.099v0.275h-0.275V72.45h-0.275v-0.275h0.275v-0.549h-0.275V71.9h-0.275v0.275h-0.275V71.9h0.275v-0.275h-0.275v-0.275h0.275
		v-0.549h-0.275v0.275h-0.275v0.275h-0.275v-0.275h0.275v-0.275h-0.549v-1.099h-0.275v1.099h-0.275v-0.549h-0.549v0.549h-0.549
		v-0.275h0.275v-0.275h-1.099v0.275h-0.275v-0.275h0.275v-0.275h-0.549v0.549h-0.275v-0.549h-0.275v0.549h-0.275v0.275h-0.549
		v-0.549h-0.275v-0.275h-0.275v0.824h-0.275v-0.549h-0.275v0.275h-0.275v0.275h-0.275v-0.824h-0.275v0.275H98.3v0.275h-0.275v0.275
		H97.75v-0.275h0.275v-0.275h-0.549v-0.549h-0.275v1.099h-0.275v-0.275h-0.275v-0.275h-0.824v0.275h-0.549v0.275h-0.275v-0.549
		h-0.275v0.275h-0.275v-0.275h-0.275v-0.549h-0.275v0.824h0.275v0.275h-0.275v-0.275H93.63v0.275h-0.275v-0.275H93.08v-0.275h-0.549
		v-0.275h-0.275v0.549h0.275v0.275h-0.275v-0.275h-0.275v-0.275h-0.549v-0.275h-0.275v0.549h0.275v0.275h-0.275v-0.275h-0.275
		v-0.275h-0.549v-0.275h-0.275v0.549h0.275v0.275h-0.275v-0.275h-0.549v-0.275h-0.275v0.275h-0.275v-0.275h-0.824v0.275H87.86
		v-0.275h-0.549v-0.275h-0.275v0.275h-1.648v0.275h-0.824v-0.275h-0.824v0.275h-0.275v-0.824H83.19v1.099h-0.275v-1.099h-0.549
		v0.275h0.275v0.549h-0.275v-0.549h-0.275v0.549h-0.275v-0.549h-0.275v-0.275h-0.275v0.549h-0.275v0.275h-0.275v0.275h-0.549v-0.275
		h0.549v-0.275h0.275v-0.549h-0.275v0.275h-0.275v0.275h-0.275v-0.275h-0.275v0.549h-0.549v-0.275h-0.275v0.549h0.275v0.275h-0.275
		v-0.275h-0.275v0.549H78.52V71.9h-0.275v-0.275H77.97v0.824h-0.275V71.9h-0.275v0.275h-0.275v0.275h-0.275v0.549h-0.275V72.45
		h-0.275v0.275h-0.549V72.45h-0.549v-0.275h-0.275v0.275h-0.275v0.275h-0.275V72.45h0.275v-0.275h-0.824V71.9h-0.275v0.275h-0.549
		V71.9H72.75v0.275h-0.275V71.9h-0.275v0.275h-0.275v0.275h-0.275v0.275h-0.275V72.45h0.275v-0.275h0.275V71.9h-0.549v0.275h-0.275
		v0.275h-0.275v-0.275h-0.549v0.275h0.275v0.275h-0.275V72.45h-0.275v-0.275h0.275V71.9h-0.549v0.549h-0.275v-0.275H68.63v0.275
		h-0.275v-0.275h-0.549v0.275h0.275v0.275h-0.275V72.45h-0.275v-0.275h-0.275v0.275h-0.275v-0.275h-0.275v0.549h-0.275v-0.549
		h-0.275V71.9h-0.275v0.549h-0.275V71.9h-0.275v0.549h-0.824v-0.275h-0.275v0.824h-0.549v-0.275h0.275V72.45h-0.275v-0.275H63.41
		v0.275h-0.275v-0.275H62.86v0.275h-0.275v-0.275h0.275v-0.549h-0.275V71.9h-0.275v-0.275h0.275v-0.275h-0.549v-0.275h-0.275v-0.275
		h-0.549v-0.549h-0.275v-0.275h-0.275v0.275h-0.549v-0.549h-0.275v0.549h-0.549v-0.275h-0.275v0.275h-0.275v-0.275h-0.275v0.549
		H58.19v-0.824h-0.275v0.824H57.64v-0.275h-0.275v0.275h-0.275v0.275h-0.275v-0.275h-0.275v0.275h-0.549v-0.275h-0.275v0.275h-0.275
		v-0.824h-0.275v0.275h-0.275v-0.549h-0.549v-0.824h-0.549v-0.275h0.275v-0.275h-0.275v-0.275h-0.549v-0.549h-0.549V67.23h-0.549
		v-0.275h0.275V66.68h-1.374v0.275h-0.275v0.275h-0.275v-0.275h0.275V66.68h0.275v-0.549h-0.275v0.275h-0.549v-0.275h-0.275v0.275
		h-0.275v-0.275h-0.275v-0.275h-0.275v0.275h-0.275v-0.275h0.275v-0.275h-0.275v-0.275h-0.824v-0.275H48.3v-0.275H47.75v0.275
		h-0.549v0.275h-0.275v-0.275h0.275v-0.824h-0.275v0.275h-0.275v-0.275h-0.549v0.275h0.275v0.275h0.275v0.275h-0.275v-0.275h-0.549
		v-0.275h-0.275v0.275h-0.549v-0.549h-0.275v0.549h-0.824v0.275h0.275v0.275h0.275v0.275h-0.275v-0.275h-0.275v-0.275H43.63v-0.275
		H43.08v0.275h-0.275v0.275h-0.549v-1.099h-0.275v0.275h-0.275v0.275h0.275v0.275h-0.275v0.275h-0.275v-0.275h-0.275v0.275h-0.275
		v-0.275h-0.275v-0.275h-0.275v-0.275h-0.275v0.549h0.275v0.275h-0.275v-0.275h-0.275v-0.275h-0.275v0.549h-0.549v-0.275h0.275
		v-0.275h-0.549v-0.549H38.41v0.549H37.86v-0.549h-0.275v0.549h-0.549v-0.275h-0.549v-0.275h-0.275v0.549h0.275v0.275h0.275v0.275
		h-0.275v-0.275h-0.275v-0.275h-0.549v0.275h-0.549v-0.275h-0.275v0.549h0.275v0.549h-0.275v-0.549h-0.275v0.275h-0.549v0.275h0.275
		v0.275h-0.275v-0.275h-0.275v0.275H33.19v0.549h-0.275v0.275h-0.549v-0.549h-0.275v0.549h-0.275v-0.549h-0.549v0.275h0.275v0.275
		h-0.275V66.68h-0.549v-0.275h-0.824v0.549h0.275v0.275h-0.275v-0.275h-0.275v-0.549h-0.275v0.824h-0.275v0.275h-0.275V67.23H28.52
		v0.824h-0.275v0.275H27.97v-0.275h-0.275v0.275h-0.275v0.275h0.275v0.275h0.275v-0.275h0.275v0.275H27.97v0.275h-0.275v-0.275
		h-0.275v-0.275h-0.275v-0.549h-0.275v0.824h-0.275v0.275h-0.275v-0.275h0.275v-0.275h-0.549v0.549h-0.275v-0.549h-0.275v0.275
		h-0.275v-0.275h0.275v-0.275h-0.549v0.275h-0.275v-0.275h-0.275v0.275h-0.275v0.275h-0.275v-0.275h0.275v-0.275h-0.275v-0.275
		h-0.275v0.275H22.75v0.275h-0.275v-0.275h-0.275v0.275h-0.549v0.549h-0.275v-0.549h0.275v-0.275h0.275v-0.275h-0.549v0.275h-0.275
		v0.275h-0.549v-0.275h-0.275v0.275h-0.549v-0.275h-0.275v0.549h-0.275v-0.824h-0.275v0.275H18.63v0.275h0.275v0.275H18.63v-0.275
		h-0.275v0.549H18.08v-0.549h-0.549v0.549h-0.275v-0.549h-0.275v-0.549h-0.275v0.549h-0.275v0.549h-0.275v-0.549h0.275v-0.275
		h-0.275v-0.275h-0.275v-0.275h-0.275v0.275h-0.275v-0.549h-0.275V67.23h-0.275v0.275h-0.549V67.23h0.549V66.68h-0.275v-0.275
		h-0.275v-0.824h-0.275v-0.275h-0.275v-0.549H13.41v-0.275h0.275v-0.275H13.41v-0.275h0.275v0.275h0.549v-0.275h-0.275v-0.275h0.275
		v-0.549h-0.275v0.275h-0.275v-0.275h0.275v-0.275h0.275v-0.549h-0.275v0.275h-0.275v-0.275h0.275V62.01h0.549v-0.275h-0.275v-0.275
		h0.824v-0.275h-0.275v-0.275h-0.549v-0.275h0.549v0.275h0.275v-0.549h0.275v0.275h0.275v-0.824h0.275v0.549h0.275v-0.824h-0.275
		v-0.275h0.275v0.275h0.275v-0.275h0.275v0.275h0.275v-0.275h0.275v-0.549h0.275v0.549h0.824v-0.275h0.275v-0.275h0.275v0.275H18.63
		v0.275h-0.275v0.549h0.275v-0.275h0.275v-0.275h0.275v-0.549h0.275v0.549h0.275v0.275h-0.275v0.275h0.549v-0.275h0.275v-0.275
		h0.549v0.275h-0.549v0.275h1.099v-0.275h-0.275v-0.275h0.275v0.275h0.549v-0.275h0.275v-0.275h0.275v0.275h-0.275v0.275h0.275
		v0.275h1.374v-0.275h-0.275v-0.275h0.275v0.275h0.275v0.275h0.549v0.275h0.275v-0.275h0.275v-0.275h0.549v-0.275h0.549v-0.275
		h-0.549v-0.275h0.549v0.275h0.275v0.275h0.275v-0.549h-0.275v-0.275h0.275v0.275h0.275v-0.549h0.275v0.275h0.549v-0.275h-0.275
		v-0.549h-0.275V57.34h0.275v0.275h0.275v0.549h0.275v-0.549h0.549V57.34h0.275v0.275h0.549v0.549h0.275v-0.549h0.549v0.549h0.275
		v-0.549h0.275v0.275h0.275V57.34h0.549v0.275h0.275v-0.549h0.824v-0.549H32.64v-0.275h0.275v0.275h0.549v-0.275H33.19v-0.275h0.275
		v0.275h0.275v-0.549h0.275v0.275h0.549v-0.549h0.275v0.549h0.549v-0.275h-0.275v-0.275h0.275v0.275h0.275v0.275h0.275v-0.275h0.275
		v0.275h0.275v-0.275h0.275v0.549h0.275v-0.275h1.374v0.275h0.275v-0.275h0.275v-0.275h-0.275v-0.275h0.275v0.275h0.275v0.275h0.549
		v0.275h-0.275v0.275h0.549v-0.824h0.275v0.275h0.275v0.549h0.275v-0.824h0.275v-0.275h0.275v0.275h0.275v0.275h0.549v0.275h0.275
		v-0.275h0.549v-0.275h0.275v0.275H43.08v0.275h0.549v-0.824h0.275v0.824h0.275v-0.275h0.549v-0.275h0.275v-0.275h0.549v0.275
		h-0.549v0.275h-0.275v0.275h0.549v-0.275h0.549v-0.275h0.275v0.275h-0.275v0.275h0.549v-0.275h0.549v0.275h0.275v-0.549h0.275
		v0.275h0.275v-0.549h0.275v0.549h0.549v-0.549h0.275v0.549h0.549v0.275h0.824v0.275h0.275v0.549h0.549V56.79h-0.275v-0.275h0.275
		v0.275h0.275v0.275h-0.275v0.275h0.549v0.275h0.824V57.34h0.275v0.824h0.275v-0.275h0.275v0.275h0.275v-0.549h-0.275V57.34h0.275
		v0.275h0.549v0.275h-0.275v0.275h0.549v0.549h0.824v0.275h0.275v-0.275h0.275v0.275h0.275v-0.275h0.275v-0.275h-0.275v-0.275
		h-0.549V57.34h-0.549v-0.275h-0.824V56.79h-0.275v0.275H53.52V56.79H52.97v-0.275h-0.275v0.549h-0.275v-0.549h-0.824v-0.549h-0.549
		v-0.549h-0.824v-0.549h-0.824v-0.275h-0.275v0.275h-1.099v-0.275H47.75v0.549h-0.275v0.275h-0.275v-0.275h0.275v-0.275h-1.099
		v0.275h-0.275v-0.275h-0.275v0.275h-0.275v-0.275h-0.549v0.275h-0.275v-0.275h-0.824v0.275H43.63v-0.275h-0.275v0.275H43.08v0.275
		h-0.275v-0.275h0.275v-0.275h-0.549v0.275h-0.275v-0.275h-0.275v0.275h-0.275v-0.275h-0.275v0.275h-0.275v-0.275h-0.549v0.275
		h-0.275v0.275h-0.275v-0.275h0.275v-0.275h-1.099v0.275h0.275v0.275h-0.275v-0.275h-0.275v-0.275H38.41v0.275h-0.275v-0.275H37.86
		v0.275h-0.824v0.275h-0.275v-0.275h0.275v-0.275h-2.198v0.275h-0.275v-0.275h0.275v-0.275h-1.099v0.275H33.19v0.275h-0.275v0.275
		h-0.549v0.275h-0.275v0.549h0.275v0.275h-0.275v0.275h-0.275v0.275h-0.275V56.79h0.275v-0.275h0.275v-0.275h-0.549v0.275h-0.275
		v0.275h-0.275v0.275h-0.275V56.79h-1.099v-0.275h-0.275v0.275h-0.275v0.275h-0.275V56.79h0.275v-0.275h-1.374v0.275h-0.275v0.275
		h-0.549v0.275h-0.275v0.275h-0.275v0.549h-0.275v0.275h-0.549v0.549h-0.275v-0.275h-0.275v0.549h-0.275v-0.549h-0.275v0.275h-0.549
		v-0.275h-1.648v-0.275h-0.275v0.275h-0.549v-0.275h-0.275v0.275h-0.549v-0.275h-0.275v0.275h-0.275v-0.275H18.63v-0.275h-0.824
		v0.275h-0.275v-0.275h-0.275v0.275h-0.275v-0.275h-0.549v0.275h-0.549v0.275h0.275v0.275h-0.275v-0.275h-0.275v0.275h-0.275v0.275
		h0.275v0.275h-0.275v-0.275h-0.549v0.275h-0.275v0.275h-0.275v0.549h-0.275v0.275h-0.275v0.824h-0.549v1.099H12.86v0.275h0.275
		v0.275H12.86v1.099h0.275v0.275H12.86v1.099h0.275v0.275H12.86v0.275h0.275v0.275h0.275v0.824h0.275v0.275h0.275v0.275h0.275v0.275
		h0.275v-0.275h0.275v0.275h-0.275v0.549h0.549v0.549h0.549v0.275h0.549v0.275h1.374v0.275h0.275v-0.275h0.275v0.275h0.275v-0.549
		h0.275v0.275h0.549v-0.275h0.275v-0.275h0.275v0.275h-0.275v0.275h0.549v-0.549h0.275v0.549h0.275v-0.275h1.099v0.275h0.275v-0.275
		h2.473v-0.275h0.275v0.549h0.549v-0.275h-0.275v-0.275h0.275v0.275h0.275v0.275h0.824v0.275h0.275v-0.275h1.374v-0.275h0.549
		v-0.275h0.275v-0.549H28.52v-0.275h0.275v0.275h0.275v-0.275h0.275v-0.275h0.275v-0.275h0.275v-0.275h1.648v0.275h0.549v-0.275
		h0.275v0.549h0.275v-0.275h0.824v-0.275h0.275v0.275h0.275V67.23h0.275v-0.275h0.275V66.68h0.275v-0.275h0.275v-0.275h0.275v-0.275
		h0.549v-0.275h1.099v-0.275h0.275v0.275h0.824v0.275h3.846v0.275h0.275v-0.275h2.473v-0.275h0.275v-0.275h0.275v-0.275h0.275v0.275
		h-0.275v0.275h-0.275v0.275h0.549v-0.275h1.923v0.275h0.549v0.275H48.3v0.275h0.275v0.275h0.275v0.275h0.275v0.275h0.824v0.275
		h1.099v0.275h0.275v-0.275h0.275v0.549h0.824v0.275h0.275v0.549h0.275v0.275h0.275v0.824h0.275v0.275h0.275v0.549h0.549v0.549
		h0.549v0.275h0.824V71.9h0.824v-0.275h-0.549v-0.275h0.549v0.275h0.275V71.9h0.275v-0.275h0.275v-0.275h1.374v-0.275h-0.275v-0.275
		h0.275v0.275h0.549v-0.275h0.275v-0.275h0.275v0.275h-0.275v0.275h0.549v0.275h0.824v-0.275h-0.275v-0.275h-0.275v-0.275h0.275
		v0.275h0.275v0.275h0.275v0.275h-0.275v0.275h0.275V71.9h0.275v0.549h0.275v0.275h0.275v0.275h0.549v0.275h0.275v0.275h2.198
		v-0.275h0.549v0.275h0.275v-0.275h0.824v-0.275h0.275v0.275h0.275v-0.275h0.549v0.275h0.275v-0.275h0.549v0.275h0.824v-0.275h0.275
		v0.275h0.824v-0.275h0.275v0.275h0.275v-0.275h0.275v0.275h0.275v-0.275h0.275v0.275h0.549v-0.275h0.549V72.45H73.3v0.549h-0.275
		v0.275h0.824v-0.275h0.275v0.275h0.275v-0.275h0.275v0.275h0.275v0.275h0.275v-0.275h0.275v0.275h1.923v-0.275h0.549v-0.275h0.549
		v-0.275h0.275v-0.549h0.275V71.9h0.549v-0.824h0.275v0.275h0.275v-0.275h1.374v0.275h0.275v-0.275h0.275v-0.275h0.275v0.275h-0.275
		v0.275h0.549v-0.275h0.275v0.275h12.912v-0.275h0.275v0.275h2.473v-0.275h0.275v0.275h0.275v-0.275h0.275v0.275h3.297v-0.275h0.275
		v-0.275h0.275v0.275h-0.275v0.275h0.549v-0.275h0.275v0.275h0.549v-0.275h0.275v0.275h0.549v0.275h0.275v0.549h0.275v0.275h0.549
		v0.824h0.275v0.549h0.824v-0.275h0.275v0.275h-0.275v0.275h0.549v0.275h0.275v-0.275h0.275v0.275h0.275v-0.275h0.549v-0.275h0.549
		v-0.549h-0.275v-0.275h0.275v0.275h0.549v-0.275h0.275V72.45h0.275v-0.275h0.275V71.9h0.275v-0.275h0.275v-0.275h-0.275v-0.275
		h0.549v-0.549h0.275v-0.275h-0.275v-0.275h0.275v0.275h0.275v-0.824h-0.549v-0.275h0.549v0.275h0.275V67.23h-0.275v-0.275h0.275
		V66.68h-0.275v-0.275H112.86z M56.542,60.362h-0.275v-0.275h0.275V60.362z M60.662,60.911h-0.275v-0.275h0.275V60.911z
		 M63.135,60.911H62.86v-0.275h-0.275v-0.275h0.275v0.275h0.275V60.911z M64.234,62.01h-0.275v-0.275h0.275V62.01z M64.783,62.56
		h-0.275v-0.275h0.275V62.56z M65.333,63.384h-0.275v-0.275h0.275V63.384z M65.882,63.109h-0.275v-0.275h0.275V63.109z
		 M71.926,62.834h-0.275v0.275h-0.275v-0.275h0.275V62.56h0.275V62.834z M72.75,63.109h-0.275v-0.275h0.275V63.109z M73.849,63.109
		h-0.275v-0.275h0.275V63.109z M79.893,60.911h-0.275v-0.275h0.275V60.911z M81.267,61.186h-0.549v-0.275h0.549V61.186z
		 M85.937,61.186h-0.275v-0.275h0.275V61.186z M88.135,60.911H87.86v-0.275h0.275V60.911z M88.684,60.911H88.41v-0.275h0.275V60.911
		z M89.783,60.911h-0.275v-0.275h0.275V60.911z M91.432,60.911h-0.275v-0.275h0.275V60.911z M91.981,61.186h-0.275v-0.275h0.275
		V61.186z M94.179,60.911h-0.275v-0.275h0.275V60.911z M99.124,60.911h-0.275v-0.275h0.275V60.911z M100.498,61.186h-0.275v-0.275
		h0.275V61.186z M103.794,60.636h-0.275v-0.275h0.275V60.636z M105.443,61.186h-0.275v-0.275h0.275V61.186z M107.091,62.56h-0.275
		v-0.275h0.275V62.56z M110.113,63.109h-0.275v-0.275h0.275V63.109z M111.761,64.757h-0.275v-0.275h0.275V64.757z M54.619,57.614
		h0.275v0.549h-0.275V57.614z M51.597,56.79h0.275v0.275h-0.275V56.79z M50.498,55.691h0.275v0.275h-0.275V55.691z M49.948,55.691
		h0.275v0.275h-0.275V55.691z M49.124,55.142h0.275v0.275h-0.275V55.142z M46.377,55.417h0.275v0.275h-0.275V55.417z M44.179,55.417
		h0.275v0.275h-0.275V55.417z M41.981,55.417h0.275v0.275h-0.275V55.417z M38.135,55.417h0.275v0.275h-0.275V55.417z M36.212,55.142
		h0.275v0.275h-0.275V55.142z M33.465,55.142h0.549v0.275h-0.549V55.142z M32.64,55.691h0.275v0.275H32.64V55.691z M29.344,57.065
		h0.275v0.275h-0.275V57.065z M27.97,56.79h0.275v0.275H27.97V56.79z M26.871,57.614h0.275v0.275h-0.275V57.614z M23.025,58.988
		H23.3v0.275h-0.275V58.988z M17.805,58.713h0.275v0.275h-0.275V58.713z M14.783,59.812h0.275v0.275h-0.275V59.812z M13.135,65.307
		v-0.275h0.275v0.275H13.135z M13.41,65.856v-0.275h0.275v0.275H13.41z M13.959,66.955h-0.275V66.68h0.275V66.955z M15.882,68.603
		h-0.549v-0.275h0.549V68.603z M16.981,69.153h-0.275v-0.275h0.275V69.153z M22.75,69.153h-0.275v-0.275h0.275V69.153z
		 M23.575,68.878h-0.549v-0.275h0.549V68.878z M30.717,67.23h-0.275v-0.275h0.275V67.23z M33.19,67.505h-0.275V67.23h0.275V67.505z
		 M34.014,66.68h-0.275v0.275h-0.275v-0.549h0.549V66.68z M37.86,65.307h-0.275v-0.275h0.275V65.307z M38.41,65.307h-0.275v-0.275
		h0.275V65.307z M43.63,65.581h-0.275v-0.275h0.275V65.581z M49.399,66.68h-0.275v-0.275h0.275V66.68z M49.948,66.955h-0.275V66.68
		h0.275V66.955z M51.597,66.955h0.275v0.275h-0.275V66.955z M52.146,67.779h-0.275v-0.275h0.275V67.779z M52.97,68.054h-0.275
		v-0.275h0.275V68.054z M53.245,68.603v-0.275h0.275v0.275H53.245z M54.069,69.702h-0.275v-0.275H53.52v-0.275h0.275v0.275h0.275
		V69.702z M54.344,69.977h0.275v0.275h-0.275V69.977z M54.893,70.801h-0.275v-0.275h0.275V70.801z M57.64,71.076h-0.275v-0.275
		h0.275V71.076z M61.761,71.9v-0.275h-0.275v-0.275h0.275v0.275h0.275V71.9H61.761z M62.311,72.45h-0.275v-0.275h0.275V72.45z
		 M63.135,72.999H62.86v-0.275h0.275V72.999z M65.058,72.999h-0.275v-0.275h0.275V72.999z M65.882,72.999h-0.549v-0.275h0.549
		V72.999z M69.179,72.724h-0.275V72.45h0.275V72.724z M72.476,72.724h-0.275V72.45h0.275V72.724z M73.849,72.724h-0.275V72.45h0.275
		V72.724z M75.498,72.999h-0.275v-0.275h0.275V72.999z M77.695,72.999h-0.275v-0.275h0.275V72.999z M81.542,70.801h-0.275v-0.275
		h0.275V70.801z M83.739,71.076h-0.275v-0.275h0.275V71.076z M84.564,71.076h-0.275v-0.275h0.275V71.076z M85.662,71.076h-0.275
		v-0.275h0.275V71.076z M86.487,71.076h-0.275v-0.275h0.275V71.076z M87.311,71.076h-0.275v-0.275h-0.275v-0.275h0.275v0.275h0.275
		V71.076z M88.41,71.076H87.86v-0.275h0.549V71.076z M89.234,71.076h-0.275v-0.275h0.275V71.076z M89.783,71.076h-0.275v-0.275
		h0.275V71.076z M90.882,71.076h-0.275v-0.275h0.275V71.076z M91.981,71.076h-0.275v-0.275h0.275V71.076z M93.08,71.076h-0.275
		v-0.275h0.275V71.076z M96.651,71.076h-0.275v-0.275h0.275V71.076z M99.124,70.801h-0.275v-0.275h0.275V70.801z M102.421,71.076
		h-0.275v-0.275h0.275V71.076z M105.992,71.9h-0.275v-0.275h0.275V71.9z M106.816,72.999h-0.275v-0.275h0.275V72.999z
		 M109.289,73.549h-0.549v-0.275h0.549V73.549z M110.388,72.724h-0.275V72.45h0.275V72.724z M110.662,72.175h-0.275V71.9h0.275
		V72.175z M112.036,65.307h0.275v0.275h-0.275V65.307z M112.036,66.955h0.275v0.275h-0.275V66.955z M112.586,68.878h-0.275v-0.275
		h0.275V68.878z M112.586,68.054h-0.275v-0.275h-0.275v-0.275h0.275v0.275h0.275V68.054z"/>
	<rect x="38.959" y="62.285" width="0.275" height="0.275"/>
	<rect x="21.102" y="61.735" width="0.275" height="0.275"/>
	<rect x="31.542" y="63.933" width="0.275" height="0.275"/>
	<rect x="31.267" y="64.208" width="0.275" height="0.275"/>
	<rect x="21.651" y="61.735" width="0.275" height="0.275"/>
	<rect x="21.377" y="62.01" width="0.275" height="0.275"/>
	<rect x="84.838" y="63.658" width="0.275" height="0.275"/>
	<rect x="79.069" y="64.208" width="0.275" height="0.275"/>
	<rect x="62.036" y="68.329" width="0.275" height="0.275"/>
	<polygon points="79.619,68.054 79.344,68.054 79.344,68.329 79.893,68.329 79.893,67.779 79.619,67.779 	"/>
	<rect x="55.717" y="67.23" width="0.275" height="0.275"/>
	<rect x="71.377" y="65.581" width="0.275" height="0.275"/>
	<rect x="47.75" y="62.285" width="0.275" height="0.275"/>
	<rect x="38.41" y="56.516" width="0.275" height="0.275"/>
	<rect x="38.959" y="55.966" width="0.275" height="0.275"/>
	<rect x="28.245" y="65.032" width="0.275" height="0.275"/>
	<rect x="30.168" y="64.483" width="0.275" height="0.275"/>
	<polygon points="41.432,56.516 41.432,56.241 41.706,56.241 41.706,55.966 41.432,55.966 41.432,55.691 41.157,55.691 
		41.157,56.516 	"/>
	<rect x="38.684" y="56.241" width="0.275" height="0.275"/>
	<rect x="36.212" y="56.241" width="0.549" height="0.275"/>
	<rect x="28.52" y="57.889" width="0.275" height="0.275"/>
	<rect x="31.542" y="59.538" width="0.275" height="0.275"/>
	<rect x="47.75" y="55.966" width="0.275" height="0.275"/>
	<rect x="54.619" y="59.263" width="0.275" height="0.275"/>
	<rect x="43.63" y="56.241" width="0.275" height="0.275"/>
	<rect x="46.651" y="56.241" width="0.275" height="0.275"/>
	<rect x="45.553" y="56.241" width="0.275" height="0.275"/>
	<rect x="32.091" y="57.614" width="0.275" height="0.275"/>
	<rect x="30.168" y="58.164" width="0.275" height="0.275"/>
	<rect x="31.542" y="57.614" width="0.275" height="0.275"/>
	<rect x="32.091" y="63.933" width="0.275" height="0.275"/>
	<rect x="31.816" y="57.889" width="0.275" height="0.275"/>
	<rect x="28.794" y="57.614" width="0.275" height="0.275"/>
	<rect x="30.992" y="64.483" width="0.275" height="0.275"/>
	<rect x="29.069" y="57.889" width="0.275" height="0.275"/>
	<rect x="35.388" y="55.966" width="0.275" height="0.275"/>
	<rect x="34.564" y="55.966" width="0.275" height="0.275"/>
	<rect x="35.937" y="55.966" width="0.275" height="0.275"/>
	<rect x="32.915" y="57.065" width="0.275" height="0.275"/>
	<rect x="27.421" y="65.581" width="0.275" height="0.275"/>
	<rect x="33.465" y="56.516" width="0.275" height="0.275"/>
	<rect x="50.772" y="57.34" width="0.275" height="0.275"/>
	<rect x="20.827" y="61.461" width="0.275" height="0.275"/>
	<rect x="16.981" y="62.01" width="0.275" height="0.275"/>
	<polygon points="23.849,62.01 24.124,62.01 24.124,61.735 23.575,61.735 23.575,62.285 23.849,62.285 	"/>
	<rect x="26.871" y="65.856" width="0.275" height="0.275"/>
	<rect x="18.355" y="61.735" width="0.275" height="0.275"/>
	<rect x="18.904" y="61.186" width="0.275" height="0.275"/>
	<rect x="20.003" y="61.461" width="0.275" height="0.549"/>
	<polygon points="29.619,60.087 29.344,60.087 29.344,59.812 29.069,59.812 29.069,60.362 29.619,60.362 	"/>
	<polygon points="31.267,59.538 30.992,59.538 30.992,59.812 30.717,59.812 30.717,60.087 31.267,60.087 	"/>
	<rect x="27.695" y="60.636" width="0.275" height="0.275"/>
	<rect x="25.772" y="61.461" width="0.275" height="0.275"/>
	<rect x="24.399" y="61.461" width="0.275" height="0.275"/>
	<rect x="24.673" y="61.735" width="0.275" height="0.275"/>
	<rect x="21.377" y="61.461" width="0.275" height="0.275"/>
	<rect x="23.849" y="66.406" width="0.275" height="0.275"/>
	<rect x="21.377" y="66.131" width="0.275" height="0.275"/>
	<rect x="22.201" y="66.131" width="0.275" height="0.275"/>
	<rect x="23.575" y="66.131" width="0.275" height="0.275"/>
	<rect x="24.124" y="66.131" width="0.275" height="0.275"/>
	<rect x="25.772" y="66.131" width="0.549" height="0.275"/>
	<rect x="20.553" y="66.406" width="0.275" height="0.275"/>
	<rect x="18.63" y="66.406" width="0.549" height="0.275"/>
	<rect x="16.981" y="66.131" width="0.275" height="0.275"/>
	<rect x="15.882" y="65.032" width="0.549" height="0.275"/>
	<rect x="18.355" y="66.68" width="0.275" height="0.275"/>
	<rect x="20.278" y="66.68" width="0.275" height="0.275"/>
	<rect x="17.256" y="61.461" width="0.275" height="0.549"/>
	<rect x="30.992" y="66.131" width="0.275" height="0.275"/>
	<rect x="75.223" y="64.208" width="0.275" height="0.275"/>
	<rect x="77.421" y="64.208" width="0.275" height="0.275"/>
	<rect x="77.421" y="63.109" width="0.275" height="0.275"/>
	<rect x="73.849" y="65.032" width="0.275" height="0.275"/>
	<rect x="77.97" y="63.933" width="0.275" height="0.275"/>
	<rect x="69.454" y="63.658" width="0.549" height="0.275"/>
	<rect x="78.245" y="61.735" width="0.275" height="0.275"/>
	<rect x="68.904" y="63.933" width="0.275" height="0.275"/>
	<rect x="73.3" y="63.933" width="0.275" height="0.275"/>
	<rect x="71.377" y="63.933" width="0.275" height="0.275"/>
	<rect x="91.157" y="61.735" width="0.275" height="0.275"/>
	<rect x="93.904" y="62.01" width="0.275" height="0.275"/>
	<rect x="80.992" y="62.834" width="0.275" height="0.275"/>
	<rect x="94.454" y="62.834" width="0.275" height="0.275"/>
	<rect x="66.981" y="64.208" width="0.275" height="0.275"/>
	<rect x="92.531" y="62.285" width="0.275" height="0.275"/>
	<rect x="84.014" y="62.01" width="0.275" height="0.275"/>
	<rect x="88.41" y="62.285" width="0.275" height="0.275"/>
	<rect x="90.058" y="62.01" width="0.275" height="0.275"/>
	<rect x="91.157" y="62.285" width="0.275" height="0.275"/>
	<rect x="60.937" y="61.735" width="0.275" height="0.275"/>
	<rect x="67.256" y="65.032" width="0.275" height="0.275"/>
	<rect x="56.816" y="63.109" width="0.275" height="0.275"/>
	<rect x="55.717" y="62.285" width="0.275" height="0.275"/>
	<rect x="59.564" y="62.285" width="0.275" height="0.275"/>
	<rect x="95.278" y="63.109" width="0.275" height="0.275"/>
	<rect x="56.542" y="61.735" width="0.275" height="0.275"/>
	<rect x="58.465" y="63.384" width="0.275" height="0.275"/>
	<rect x="60.113" y="63.658" width="0.275" height="0.275"/>
	<rect x="60.937" y="63.658" width="0.275" height="0.275"/>
	<rect x="58.739" y="63.658" width="0.275" height="0.275"/>
	<polygon points="57.915,63.384 58.19,63.384 58.19,63.109 57.64,63.109 57.64,63.658 57.915,63.658 	"/>
	<rect x="63.959" y="63.384" width="0.275" height="0.275"/>
	<rect x="63.41" y="64.208" width="0.275" height="0.275"/>
	<rect x="63.135" y="62.834" width="0.275" height="0.275"/>
	<rect x="65.058" y="63.933" width="0.275" height="0.275"/>
	<rect x="62.311" y="63.933" width="0.275" height="0.275"/>
	<rect x="62.311" y="62.285" width="0.275" height="0.275"/>
	<rect x="62.036" y="63.658" width="0.275" height="0.275"/>
	<rect x="82.366" y="68.329" width="0.275" height="0.275"/>
	<rect x="62.86" y="64.208" width="0.275" height="0.275"/>
	<rect x="102.421" y="63.109" width="0.275" height="0.275"/>
	<rect x="105.717" y="70.252" width="0.275" height="0.275"/>
	<rect x="104.619" y="69.702" width="0.275" height="0.275"/>
	<rect x="101.047" y="68.054" width="0.275" height="0.549"/>
	<rect x="102.421" y="69.153" width="0.275" height="0.275"/>
	<rect x="106.267" y="69.428" width="0.275" height="0.275"/>
	<rect x="106.816" y="70.801" width="0.275" height="0.275"/>
	<rect x="108.19" y="69.702" width="0.275" height="0.275"/>
	<rect x="108.739" y="72.175" width="0.275" height="0.275"/>
	<rect x="96.102" y="69.428" width="0.275" height="0.275"/>
	<rect x="107.366" y="71.625" width="0.275" height="0.275"/>
	<rect x="94.728" y="68.603" width="0.275" height="0.275"/>
	<rect x="84.564" y="68.054" width="0.275" height="0.275"/>
	<rect x="83.739" y="68.603" width="0.275" height="0.275"/>
	<rect x="86.487" y="69.702" width="0.275" height="0.275"/>
	<rect x="84.014" y="69.702" width="0.275" height="0.275"/>
	<rect x="90.608" y="69.428" width="0.275" height="0.275"/>
	<rect x="91.981" y="69.428" width="0.275" height="0.275"/>
	<rect x="89.783" y="69.428" width="0.275" height="0.275"/>
	<rect x="92.805" y="69.428" width="0.275" height="0.275"/>
	<rect x="109.838" y="68.878" width="0.275" height="0.275"/>
	<rect x="106.816" y="64.208" width="0.275" height="0.275"/>
	<rect x="104.619" y="63.658" width="0.275" height="0.275"/>
	<rect x="103.245" y="61.735" width="0.275" height="0.275"/>
	<rect x="104.344" y="61.735" width="0.275" height="0.275"/>
	<rect x="104.893" y="61.735" width="0.275" height="0.275"/>
	<rect x="97.75" y="62.01" width="0.275" height="0.275"/>
	<rect x="64.234" y="64.757" width="0.275" height="0.275"/>
	<rect x="105.992" y="62.56" width="0.275" height="0.549"/>
	<rect x="96.651" y="69.977" width="0.275" height="0.275"/>
	<rect x="100.498" y="62.01" width="0.275" height="0.275"/>
	<rect x="109.838" y="67.505" width="0.275" height="0.275"/>
	<rect x="109.289" y="66.406" width="0.549" height="0.275"/>
	<rect x="108.465" y="63.933" width="0.275" height="0.275"/>
	<rect x="108.465" y="65.032" width="0.275" height="0.275"/>
	<rect x="109.564" y="64.208" width="0.275" height="0.549"/>
	<rect x="107.091" y="64.483" width="0.275" height="0.275"/>
	<rect x="106.542" y="63.109" width="0.275" height="0.275"/>
	<rect x="96.926" y="62.285" width="0.275" height="0.275"/>
	<rect x="107.366" y="63.384" width="0.275" height="0.275"/>
	<rect x="108.19" y="64.483" width="0.275" height="0.275"/>
	<rect x="62.586" y="61.735" width="0.275" height="0.275"/>
	<rect x="98.575" y="68.329" width="0.275" height="0.275"/>
	<rect x="92.805" y="68.054" width="0.275" height="0.549"/>
	<rect x="91.706" y="68.054" width="0.275" height="0.275"/>
	<rect x="98.3" y="68.054" width="0.275" height="0.275"/>
	<rect x="64.783" y="65.032" width="0.275" height="0.275"/>
	<rect x="93.904" y="68.329" width="0.275" height="0.275"/>
	<rect x="87.86" y="68.054" width="0.275" height="0.275"/>
	<rect x="88.135" y="68.329" width="0.275" height="0.275"/>
	<rect x="90.058" y="68.054" width="0.275" height="0.549"/>
	<rect x="90.608" y="68.054" width="0.275" height="0.275"/>
	<rect x="102.421" y="68.054" width="0.275" height="0.275"/>
	<rect x="103.245" y="68.329" width="0.275" height="0.275"/>
	<rect x="105.168" y="68.878" width="0.275" height="0.275"/>
	<rect x="107.091" y="69.153" width="0.275" height="0.549"/>
	<rect x="108.465" y="68.878" width="0.275" height="0.275"/>
	<rect x="99.124" y="68.054" width="0.275" height="0.275"/>
	<rect x="103.52" y="68.054" width="0.275" height="0.275"/>
	<rect x="99.948" y="68.054" width="0.549" height="0.275"/>
	<rect x="108.739" y="68.603" width="0.549" height="0.275"/>
	<rect x="85.937" y="68.054" width="0.275" height="0.549"/>
	<rect x="100.498" y="67.779" width="0.275" height="0.275"/>
	<rect x="65.882" y="70.252" width="0.275" height="0.275"/>
	<rect x="66.157" y="69.977" width="0.275" height="0.275"/>
	<rect x="67.531" y="69.977" width="0.275" height="0.275"/>
	<rect x="68.08" y="69.977" width="0.275" height="0.275"/>
	<rect x="83.739" y="68.054" width="0.275" height="0.275"/>
	<rect x="64.509" y="69.977" width="0.275" height="0.275"/>
	<rect x="70.278" y="69.702" width="0.275" height="0.275"/>
	<rect x="62.586" y="69.153" width="0.275" height="0.275"/>
	<rect x="62.311" y="68.603" width="0.275" height="0.275"/>
	<rect x="64.783" y="69.702" width="0.275" height="0.275"/>
	<rect x="70.003" y="69.977" width="0.275" height="0.275"/>
	<rect x="80.717" y="68.329" width="0.275" height="0.275"/>
	<rect x="79.069" y="68.329" width="0.275" height="0.275"/>
	<rect x="80.992" y="68.054" width="0.275" height="0.275"/>
	<polygon points="83.19,68.054 82.915,68.054 82.915,68.329 83.465,68.329 83.465,67.779 83.19,67.779 	"/>
	<rect x="78.245" y="68.878" width="0.275" height="0.275"/>
	<rect x="76.597" y="69.428" width="0.275" height="0.275"/>
	<rect x="75.223" y="70.252" width="0.275" height="0.275"/>
	<rect x="71.651" y="69.977" width="0.275" height="0.275"/>
	<rect x="78.52" y="68.603" width="0.275" height="0.275"/>
	<rect x="97.75" y="68.054" width="0.275" height="0.275"/>
	<rect x="83.465" y="63.109" width="0.549" height="0.275"/>
	<rect x="81.816" y="63.384" width="0.275" height="0.275"/>
	<rect x="109.289" y="68.054" width="0.275" height="0.275"/>
	<rect x="86.487" y="63.384" width="0.275" height="0.275"/>
	<rect x="76.322" y="64.757" width="0.275" height="0.549"/>
	<rect x="83.19" y="63.384" width="0.275" height="0.275"/>
	<rect x="85.662" y="63.384" width="0.275" height="0.275"/>
	<rect x="86.212" y="63.109" width="0.275" height="0.275"/>
	<rect x="83.739" y="63.658" width="0.275" height="0.275"/>
	<rect x="84.564" y="63.384" width="0.275" height="0.275"/>
	<rect x="79.069" y="63.658" width="0.275" height="0.275"/>
	<rect x="66.157" y="65.581" width="0.275" height="0.275"/>
	<rect x="66.432" y="65.307" width="0.275" height="0.275"/>
	<rect x="65.608" y="65.307" width="0.275" height="0.275"/>
	<rect x="65.333" y="65.032" width="0.275" height="0.275"/>
	<rect x="69.454" y="65.307" width="0.275" height="0.275"/>
	<rect x="74.948" y="65.032" width="0.275" height="0.549"/>
	<rect x="71.651" y="65.307" width="0.275" height="0.275"/>
	<rect x="68.08" y="65.581" width="0.549" height="0.275"/>
	<rect x="68.63" y="65.307" width="0.549" height="0.275"/>
	<rect x="81.542" y="63.109" width="0.275" height="0.275"/>
	<rect x="99.948" y="63.384" width="0.549" height="0.275"/>
	<rect x="87.311" y="63.109" width="0.275" height="0.549"/>
	<rect x="98.3" y="63.658" width="0.275" height="0.275"/>
	<rect x="101.047" y="63.384" width="0.275" height="0.275"/>
	<rect x="98.025" y="63.384" width="0.275" height="0.275"/>
	<rect x="105.992" y="64.208" width="0.275" height="0.275"/>
	<rect x="105.443" y="64.208" width="0.275" height="0.275"/>
	<rect x="104.069" y="63.658" width="0.275" height="0.275"/>
	<rect x="101.871" y="63.384" width="0.275" height="0.275"/>
	<rect x="101.322" y="63.109" width="0.275" height="0.275"/>
	<rect x="91.981" y="63.384" width="0.275" height="0.275"/>
	<rect x="90.333" y="63.384" width="0.275" height="0.275"/>
	<rect x="89.783" y="63.384" width="0.275" height="0.275"/>
	<rect x="88.41" y="63.384" width="0.275" height="0.275"/>
	<rect x="96.377" y="63.384" width="0.275" height="0.275"/>
	<rect x="96.102" y="63.109" width="0.275" height="0.275"/>
	<rect x="96.926" y="63.384" width="0.275" height="0.275"/>
	<rect x="93.63" y="63.384" width="0.275" height="0.275"/>
	<rect x="94.728" y="63.384" width="0.275" height="0.275"/>
	<rect x="98.575" y="63.109" width="0.275" height="0.275"/>
	<rect x="71.926" y="63.658" width="0.275" height="0.275"/>
	<rect x="68.904" y="63.384" width="0.275" height="0.275"/>
	<rect x="83.465" y="61.461" width="0.275" height="0.275"/>
	<rect x="68.08" y="63.658" width="0.275" height="0.275"/>
	<rect x="72.75" y="63.658" width="0.275" height="0.275"/>
	<rect x="74.399" y="63.658" width="0.275" height="0.275"/>
	<rect x="62.036" y="61.461" width="0.275" height="0.275"/>
	<rect x="59.838" y="61.735" width="0.275" height="0.275"/>
	<rect x="63.41" y="62.285" width="0.275" height="0.275"/>
	<rect x="63.684" y="62.834" width="0.275" height="0.275"/>
	<rect x="75.498" y="63.384" width="0.275" height="0.275"/>
	<rect x="82.366" y="61.735" width="0.275" height="0.275"/>
	<rect x="83.19" y="61.735" width="0.275" height="0.275"/>
	<rect x="58.739" y="62.01" width="0.275" height="0.549"/>
	<rect x="81.816" y="69.428" width="0.275" height="0.275"/>
	<rect x="57.64" y="68.054" width="0.275" height="0.275"/>
	<rect x="80.443" y="61.735" width="0.275" height="0.275"/>
	<rect x="77.421" y="62.01" width="0.275" height="0.275"/>
	<rect x="76.322" y="63.384" width="0.275" height="0.275"/>
	<rect x="77.146" y="61.735" width="0.275" height="0.275"/>
	<rect x="74.673" y="63.933" width="0.275" height="0.275"/>
	<rect x="49.673" y="56.516" width="0.275" height="0.275"/>
	<rect x="54.619" y="59.812" width="0.275" height="0.275"/>
	<rect x="51.322" y="57.889" width="0.275" height="0.275"/>
	<rect x="52.695" y="58.439" width="0.275" height="0.275"/>
	<rect x="48.3" y="57.889" width="0.275" height="0.275"/>
	<rect x="51.871" y="58.988" width="0.275" height="0.275"/>
	<rect x="49.124" y="58.164" width="0.275" height="0.275"/>
	<rect x="49.673" y="58.164" width="0.275" height="0.275"/>
	<rect x="48.849" y="57.614" width="0.275" height="0.275"/>
	<rect x="48.849" y="56.241" width="0.275" height="0.275"/>
	<rect x="111.212" y="67.505" width="0.275" height="0.275"/>
	<rect x="14.509" y="65.307" width="0.275" height="0.275"/>
	<rect x="55.992" y="61.186" width="0.275" height="0.275"/>
	<rect x="14.509" y="62.834" width="0.275" height="0.275"/>
	<rect x="56.267" y="60.911" width="0.275" height="0.275"/>
	<rect x="110.662" y="65.032" width="0.275" height="0.275"/>
	<rect x="110.388" y="65.581" width="0.275" height="0.275"/>
	<rect x="110.937" y="68.054" width="0.275" height="0.275"/>
	<rect x="15.058" y="66.406" width="0.275" height="0.275"/>
	<rect x="57.64" y="61.735" width="0.275" height="0.275"/>
	<rect x="53.794" y="58.439" width="0.275" height="0.275"/>
	<rect x="47.75" y="62.834" width="0.275" height="0.275"/>
	<rect x="110.113" y="70.801" width="0.275" height="0.275"/>
	<rect x="109.838" y="71.076" width="0.275" height="0.275"/>
	<rect x="107.091" y="72.175" width="0.549" height="0.275"/>
	<rect x="101.871" y="61.735" width="0.275" height="0.275"/>
	<rect x="110.388" y="64.208" width="0.275" height="0.549"/>
	<rect x="111.212" y="66.131" width="0.275" height="0.275"/>
	<rect x="106.542" y="71.351" width="0.275" height="0.275"/>
	<rect x="105.443" y="62.01" width="0.275" height="0.275"/>
	<rect x="111.212" y="65.307" width="0.275" height="0.549"/>
	<rect x="111.487" y="68.054" width="0.275" height="0.275"/>
	<rect x="99.399" y="69.702" width="0.275" height="0.275"/>
	<rect x="43.904" y="62.285" width="0.275" height="0.275"/>
	<rect x="98.849" y="69.702" width="0.275" height="0.275"/>
	<rect x="98.025" y="69.702" width="0.275" height="0.549"/>
	<polygon points="103.794,69.702 103.794,69.977 104.069,69.977 104.069,70.252 104.344,70.252 104.344,69.702 	"/>
	<polygon points="101.322,69.702 101.322,69.977 101.047,69.977 101.047,70.252 101.322,70.252 101.322,70.527 101.597,70.527 
		101.597,69.702 	"/>
	<rect x="102.146" y="69.702" width="0.275" height="0.275"/>
	<rect x="47.201" y="62.56" width="0.275" height="0.275"/>
	<rect x="99.673" y="69.977" width="0.275" height="0.275"/>
	<rect x="88.41" y="61.735" width="0.275" height="0.275"/>
	<rect x="88.959" y="61.461" width="0.275" height="0.549"/>
	<rect x="93.08" y="61.735" width="0.275" height="0.275"/>
	<rect x="90.608" y="61.461" width="0.275" height="0.275"/>
	<rect x="92.531" y="61.735" width="0.275" height="0.275"/>
	<rect x="91.981" y="61.735" width="0.275" height="0.275"/>
	<rect x="87.036" y="61.735" width="0.275" height="0.275"/>
	<rect x="87.311" y="61.461" width="0.275" height="0.275"/>
	<rect x="55.992" y="67.505" width="0.275" height="0.275"/>
	<rect x="87.86" y="61.735" width="0.275" height="0.275"/>
	<rect x="101.322" y="61.461" width="0.275" height="0.275"/>
	<rect x="99.673" y="61.735" width="0.275" height="0.275"/>
	<rect x="51.871" y="64.483" width="0.275" height="0.549"/>
	<rect x="101.047" y="61.735" width="0.275" height="0.275"/>
	<rect x="49.399" y="63.384" width="0.275" height="0.275"/>
	<rect x="98.3" y="61.461" width="0.275" height="0.549"/>
	<rect x="94.454" y="61.461" width="0.549" height="0.275"/>
	<rect x="96.102" y="61.461" width="0.275" height="0.549"/>
	<rect x="93.355" y="61.461" width="0.275" height="0.275"/>
	<rect x="95.003" y="61.735" width="0.549" height="0.275"/>
	<rect x="81.267" y="61.735" width="0.549" height="0.275"/>
	<rect x="56.816" y="69.702" width="0.275" height="0.275"/>
	<rect x="54.619" y="68.054" width="0.275" height="0.275"/>
	<rect x="56.542" y="68.329" width="0.275" height="0.275"/>
	<rect x="54.344" y="66.406" width="0.275" height="0.275"/>
	<rect x="54.619" y="66.68" width="0.275" height="0.275"/>
	<rect x="55.443" y="68.054" width="0.275" height="0.275"/>
	<rect x="61.212" y="68.603" width="0.275" height="0.275"/>
	<rect x="58.739" y="69.428" width="0.275" height="0.275"/>
	<rect x="61.487" y="69.428" width="0.275" height="0.275"/>
	<rect x="60.388" y="69.428" width="0.275" height="0.275"/>
	<rect x="48.3" y="63.109" width="0.275" height="0.275"/>
	<rect x="51.322" y="65.856" width="0.275" height="0.275"/>
	<rect x="51.871" y="66.131" width="0.275" height="0.275"/>
	<rect x="51.322" y="65.032" width="0.275" height="0.275"/>
	<rect x="61.761" y="68.878" width="0.275" height="0.275"/>
	<rect x="53.52" y="67.505" width="0.275" height="0.275"/>
	<rect x="52.695" y="65.307" width="0.275" height="0.275"/>
	<rect x="52.97" y="66.131" width="0.275" height="0.275"/>
	<rect x="54.069" y="67.505" width="0.275" height="0.275"/>
	<rect x="53.245" y="65.856" width="0.275" height="0.275"/>
	<rect x="71.102" y="71.351" width="0.275" height="0.275"/>
	<rect x="72.476" y="69.977" width="0.275" height="0.275"/>
	<rect x="70.827" y="70.252" width="0.549" height="0.275"/>
	<rect x="74.124" y="71.625" width="0.275" height="0.275"/>
	<rect x="72.476" y="71.351" width="0.275" height="0.275"/>
	<rect x="73.575" y="70.252" width="0.275" height="0.275"/>
	<rect x="77.421" y="69.702" width="0.275" height="0.275"/>
	<rect x="74.673" y="71.351" width="0.275" height="0.275"/>
	<rect x="80.717" y="69.153" width="0.275" height="0.275"/>
	<rect x="76.047" y="69.702" width="0.275" height="0.275"/>
	<rect x="70.553" y="71.625" width="0.275" height="0.275"/>
	<rect x="66.706" y="71.351" width="0.275" height="0.275"/>
	<rect x="66.981" y="70.252" width="0.275" height="0.275"/>
	<rect x="65.333" y="71.351" width="0.275" height="0.275"/>
	<rect x="62.86" y="70.801" width="0.275" height="0.549"/>
	<rect x="69.179" y="70.252" width="0.275" height="0.275"/>
	<rect x="62.311" y="70.801" width="0.275" height="0.275"/>
	<rect x="48.575" y="63.384" width="0.275" height="0.275"/>
	<rect x="69.179" y="71.625" width="0.275" height="0.275"/>
	<rect x="69.454" y="71.351" width="0.275" height="0.275"/>
	<rect x="29.893" y="59.538" width="0.549" height="0.275"/>
	<rect x="23.025" y="60.087" width="0.275" height="0.275"/>
	<rect x="22.75" y="61.461" width="0.275" height="0.275"/>
	<rect x="26.871" y="60.362" width="0.275" height="0.275"/>
	<rect x="19.728" y="60.911" width="0.275" height="0.275"/>
	<rect x="47.75" y="56.516" width="0.275" height="0.275"/>
	<rect x="17.805" y="61.186" width="0.275" height="0.275"/>
	<rect x="30.992" y="58.164" width="0.275" height="0.275"/>
	<rect x="18.355" y="60.911" width="0.275" height="0.549"/>
	<rect x="16.157" y="62.56" width="0.275" height="0.275"/>
	<rect x="17.805" y="59.812" width="0.275" height="0.275"/>
	<rect x="44.728" y="56.516" width="0.275" height="0.275"/>
	<rect x="16.432" y="65.856" width="0.275" height="0.275"/>
	<rect x="42.256" y="56.516" width="0.275" height="0.275"/>
	<rect x="42.805" y="57.614" width="0.275" height="0.275"/>
	<rect x="47.476" y="63.933" width="0.275" height="0.275"/>
	<rect x="45.278" y="57.614" width="0.275" height="0.275"/>
	<rect x="37.311" y="56.241" width="0.275" height="0.275"/>
	<rect x="37.86" y="56.241" width="0.275" height="0.275"/>
	<rect x="39.783" y="57.614" width="0.275" height="0.549"/>
	<rect x="41.432" y="57.614" width="0.275" height="0.275"/>
	<rect x="34.838" y="57.614" width="0.275" height="0.549"/>
	<rect x="32.366" y="65.856" width="0.275" height="0.275"/>
	<rect x="35.113" y="63.384" width="0.275" height="0.275"/>
	<rect x="33.19" y="65.581" width="0.275" height="0.275"/>
	<rect x="32.915" y="63.658" width="0.275" height="0.549"/>
	<rect x="33.739" y="63.933" width="0.275" height="0.275"/>
	<rect x="46.102" y="62.834" width="0.275" height="0.275"/>
	<rect x="40.058" y="63.933" width="0.275" height="0.275"/>
	<rect x="45.827" y="63.658" width="0.275" height="0.275"/>
	<rect x="44.454" y="62.834" width="0.549" height="0.275"/>
	<rect x="23.025" y="67.779" width="0.275" height="0.275"/>
	<rect x="19.454" y="66.68" width="0.275" height="0.275"/>
	<rect x="24.399" y="67.505" width="0.275" height="0.275"/>
	<rect x="21.926" y="66.68" width="0.275" height="0.275"/>
	<rect x="30.443" y="65.856" width="0.275" height="0.275"/>
	<rect x="19.728" y="66.406" width="0.275" height="0.275"/>
	<rect x="29.893" y="65.032" width="0.275" height="0.275"/>
	<rect x="29.344" y="65.856" width="0.275" height="0.275"/>
	<rect x="25.498" y="66.68" width="0.275" height="0.275"/>
	<rect x="27.97" y="65.581" width="0.275" height="0.275"/>
</g>
</svg>
